<svg xmlns="http://www.w3.org/2000/svg" width="1120" height="760" viewBox="0 0 1120 760">
<rect width="100%" height="100%" fill="white"/>
<style><![CDATA[
text{font-family:Arial,Helvetica,sans-serif;fill:#222} .title{font-size:18px;font-weight:700} .axis{stroke:#333;stroke-width:1} .grid{stroke:#e6e6e6;stroke-width:1} .tick{font-size:10px;fill:#555} .label{font-size:12px;fill:#222} .legend{font-size:11px;fill:#222}
]]></style>
<text class="title" x="560.0" y="27" text-anchor="middle">Four-objective Nondominated Sets: Energy-encoded 3D Projection</text>
<text class="tick" x="560.0" y="48" text-anchor="middle">Median-size matched case: repeat 0, DNN request 2; larger values are better</text>
<rect x="15.0" y="72.0" width="535.0" height="285.0" rx="4" fill="#fff" stroke="#d9d9d9"/>
<polygon points="270.0,322.0 445.0,280.0 300.0,228.0 125.0,270.0" fill="#f5f7fa" stroke="none"/>
<polygon points="270.0,322.0 125.0,270.0 125.0,105.0 270.0,157.0" fill="#eef3f7" stroke="none"/>
<polygon points="125.0,270.0 300.0,228.0 300.0,63.0 125.0,105.0" fill="#f8fafc" stroke="none"/>
<line x1="313.8" y1="311.5" x2="168.8" y2="259.5" stroke="#d5dde5" stroke-width="0.7"/>
<line x1="233.8" y1="309.0" x2="408.8" y2="267.0" stroke="#d5dde5" stroke-width="0.7"/>
<line x1="270.0" y1="280.8" x2="125.0" y2="228.8" stroke="#d5dde5" stroke-width="0.7"/>
<line x1="233.8" y1="309.0" x2="233.8" y2="144.0" stroke="#d5dde5" stroke-width="0.7"/>
<line x1="168.8" y1="259.5" x2="168.8" y2="94.5" stroke="#d5dde5" stroke-width="0.7"/>
<line x1="125.0" y1="228.8" x2="300.0" y2="186.8" stroke="#d5dde5" stroke-width="0.7"/>
<line x1="357.5" y1="301.0" x2="212.5" y2="249.0" stroke="#d5dde5" stroke-width="0.7"/>
<line x1="197.5" y1="296.0" x2="372.5" y2="254.0" stroke="#d5dde5" stroke-width="0.7"/>
<line x1="270.0" y1="239.5" x2="125.0" y2="187.5" stroke="#d5dde5" stroke-width="0.7"/>
<line x1="197.5" y1="296.0" x2="197.5" y2="131.0" stroke="#d5dde5" stroke-width="0.7"/>
<line x1="212.5" y1="249.0" x2="212.5" y2="84.0" stroke="#d5dde5" stroke-width="0.7"/>
<line x1="125.0" y1="187.5" x2="300.0" y2="145.5" stroke="#d5dde5" stroke-width="0.7"/>
<line x1="401.2" y1="290.5" x2="256.2" y2="238.5" stroke="#d5dde5" stroke-width="0.7"/>
<line x1="161.2" y1="283.0" x2="336.2" y2="241.0" stroke="#d5dde5" stroke-width="0.7"/>
<line x1="270.0" y1="198.2" x2="125.0" y2="146.2" stroke="#d5dde5" stroke-width="0.7"/>
<line x1="161.2" y1="283.0" x2="161.2" y2="118.0" stroke="#d5dde5" stroke-width="0.7"/>
<line x1="256.2" y1="238.5" x2="256.2" y2="73.5" stroke="#d5dde5" stroke-width="0.7"/>
<line x1="125.0" y1="146.2" x2="300.0" y2="104.2" stroke="#d5dde5" stroke-width="0.7"/>
<line x1="270.0" y1="322.0" x2="445.0" y2="280.0" stroke="#4b5563" stroke-width="1.15"/>
<line x1="125.0" y1="270.0" x2="300.0" y2="228.0" stroke="#8b98a5" stroke-width="0.8"/>
<line x1="270.0" y1="157.0" x2="445.0" y2="115.0" stroke="#8b98a5" stroke-width="0.8"/>
<line x1="125.0" y1="105.0" x2="300.0" y2="63.0" stroke="#8b98a5" stroke-width="0.8"/>
<line x1="270.0" y1="322.0" x2="270.0" y2="157.0" stroke="#4b5563" stroke-width="1.15"/>
<line x1="125.0" y1="270.0" x2="125.0" y2="105.0" stroke="#8b98a5" stroke-width="0.8"/>
<line x1="445.0" y1="280.0" x2="445.0" y2="115.0" stroke="#8b98a5" stroke-width="0.8"/>
<line x1="300.0" y1="228.0" x2="300.0" y2="63.0" stroke="#8b98a5" stroke-width="0.8"/>
<line x1="270.0" y1="322.0" x2="125.0" y2="270.0" stroke="#4b5563" stroke-width="1.15"/>
<line x1="270.0" y1="157.0" x2="125.0" y2="105.0" stroke="#8b98a5" stroke-width="0.8"/>
<line x1="445.0" y1="280.0" x2="300.0" y2="228.0" stroke="#8b98a5" stroke-width="0.8"/>
<line x1="445.0" y1="115.0" x2="300.0" y2="63.0" stroke="#8b98a5" stroke-width="0.8"/>
<text class="tick" x="455.0" y="309.0" text-anchor="start" font-weight="700">Accuracy reliability</text>
<text class="tick" x="315.8" y="323.5" text-anchor="middle">0.7</text>
<text class="tick" x="359.5" y="313.0" text-anchor="middle">0.8</text>
<text class="tick" x="403.2" y="302.5" text-anchor="middle">0.9</text>
<text class="tick" x="447.0" y="292.0" text-anchor="middle">1.0</text>
<text class="tick" x="270.0" y="139.0" text-anchor="middle" font-weight="700">Service reliability</text>
<text class="tick" x="265.0" y="283.8" text-anchor="end">0.1</text>
<text class="tick" x="265.0" y="242.5" text-anchor="end">0.2</text>
<text class="tick" x="265.0" y="201.2" text-anchor="end">0.3</text>
<text class="tick" x="265.0" y="160.0" text-anchor="end">0.4</text>
<text class="tick" x="115.0" y="299.0" text-anchor="end" font-weight="700">Delay satisfaction</text>
<text class="tick" x="230.8" y="321.0" text-anchor="end">0.2</text>
<text class="tick" x="194.5" y="308.0" text-anchor="end">0.4</text>
<text class="tick" x="158.2" y="295.0" text-anchor="end">0.6</text>
<text class="tick" x="122.0" y="282.0" text-anchor="end">0.8</text>
<circle cx="199.0" cy="198.1" r="3.2" fill="#2d7eb2" opacity="0.42" stroke="#fff" stroke-width="0.35"/>
<circle cx="199.0" cy="198.1" r="3.2" fill="#2d7eb2" opacity="0.42" stroke="#fff" stroke-width="0.35"/>
<circle cx="215.6" cy="200.5" r="3.2" fill="#2e81b3" opacity="0.42" stroke="#fff" stroke-width="0.35"/>
<circle cx="200.4" cy="201.0" r="3.2" fill="#2e7fb2" opacity="0.42" stroke="#fff" stroke-width="0.35"/>
<circle cx="208.4" cy="205.6" r="3.2" fill="#3085b4" opacity="0.42" stroke="#fff" stroke-width="0.35"/>
<circle cx="208.4" cy="205.6" r="3.2" fill="#3085b4" opacity="0.42" stroke="#fff" stroke-width="0.35"/>
<circle cx="220.5" cy="206.7" r="3.2" fill="#3086b5" opacity="0.42" stroke="#fff" stroke-width="0.35"/>
<circle cx="207.5" cy="206.8" r="3.2" fill="#2f84b4" opacity="0.42" stroke="#fff" stroke-width="0.35"/>
<circle cx="206.8" cy="208.4" r="3.2" fill="#2f82b3" opacity="0.42" stroke="#fff" stroke-width="0.35"/>
<circle cx="212.6" cy="210.4" r="3.2" fill="#3187b5" opacity="0.42" stroke="#fff" stroke-width="0.35"/>
<circle cx="234.6" cy="211.0" r="3.2" fill="#328ab6" opacity="0.42" stroke="#fff" stroke-width="0.35"/>
<circle cx="238.1" cy="212.6" r="3.2" fill="#3491b8" opacity="0.42" stroke="#fff" stroke-width="0.35"/>
<circle cx="238.1" cy="212.6" r="3.2" fill="#3491b8" opacity="0.42" stroke="#fff" stroke-width="0.35"/>
<circle cx="229.4" cy="215.0" r="3.2" fill="#3491b8" opacity="0.42" stroke="#fff" stroke-width="0.35"/>
<circle cx="219.8" cy="215.2" r="3.2" fill="#338fb7" opacity="0.42" stroke="#fff" stroke-width="0.35"/>
<circle cx="219.8" cy="215.2" r="3.2" fill="#338fb7" opacity="0.42" stroke="#fff" stroke-width="0.35"/>
<circle cx="236.7" cy="215.8" r="3.2" fill="#338fb8" opacity="0.42" stroke="#fff" stroke-width="0.35"/>
<circle cx="239.4" cy="217.1" r="3.2" fill="#338fb8" opacity="0.42" stroke="#fff" stroke-width="0.35"/>
<circle cx="252.3" cy="218.6" r="3.2" fill="#379abb" opacity="0.42" stroke="#fff" stroke-width="0.35"/>
<circle cx="252.8" cy="219.2" r="3.2" fill="#379abb" opacity="0.42" stroke="#fff" stroke-width="0.35"/>
<circle cx="250.3" cy="222.0" r="3.2" fill="#389dbc" opacity="0.42" stroke="#fff" stroke-width="0.35"/>
<circle cx="244.5" cy="222.6" r="3.2" fill="#3698ba" opacity="0.42" stroke="#fff" stroke-width="0.35"/>
<circle cx="255.9" cy="223.2" r="3.2" fill="#389dbc" opacity="0.42" stroke="#fff" stroke-width="0.35"/>
<circle cx="225.2" cy="223.3" r="3.2" fill="#3595b9" opacity="0.42" stroke="#fff" stroke-width="0.35"/>
<circle cx="267.0" cy="225.5" r="3.2" fill="#3fb1c2" opacity="0.42" stroke="#fff" stroke-width="0.35"/>
<circle cx="178.6" cy="226.4" r="3.2" fill="#328cb7" opacity="0.42" stroke="#fff" stroke-width="0.35"/>
<circle cx="174.1" cy="226.4" r="3.2" fill="#328bb6" opacity="0.42" stroke="#fff" stroke-width="0.35"/>
<circle cx="185.0" cy="226.5" r="3.2" fill="#328bb6" opacity="0.42" stroke="#fff" stroke-width="0.35"/>
<circle cx="179.6" cy="226.6" r="3.2" fill="#328bb6" opacity="0.42" stroke="#fff" stroke-width="0.35"/>
<circle cx="196.1" cy="227.1" r="3.2" fill="#338db7" opacity="0.42" stroke="#fff" stroke-width="0.35"/>
<circle cx="252.5" cy="227.4" r="3.2" fill="#3dacc1" opacity="0.42" stroke="#fff" stroke-width="0.35"/>
<circle cx="212.1" cy="227.6" r="3.2" fill="#3594b9" opacity="0.42" stroke="#fff" stroke-width="0.35"/>
<circle cx="162.2" cy="228.0" r="3.2" fill="#328ab6" opacity="0.42" stroke="#fff" stroke-width="0.35"/>
<circle cx="245.6" cy="229.2" r="3.2" fill="#3ba5bf" opacity="0.42" stroke="#fff" stroke-width="0.35"/>
<circle cx="280.9" cy="229.5" r="3.2" fill="#41b5c4" opacity="0.42" stroke="#fff" stroke-width="0.35"/>
<circle cx="149.1" cy="230.1" r="3.2" fill="#3189b6" opacity="0.42" stroke="#fff" stroke-width="0.35"/>
<circle cx="279.2" cy="230.6" r="3.2" fill="#40b4c3" opacity="0.42" stroke="#fff" stroke-width="0.35"/>
<circle cx="240.3" cy="231.4" r="3.2" fill="#3ba5bf" opacity="0.42" stroke="#fff" stroke-width="0.35"/>
<circle cx="292.0" cy="232.0" r="3.2" fill="#54bdc5" opacity="0.42" stroke="#fff" stroke-width="0.35"/>
<circle cx="154.1" cy="234.0" r="3.2" fill="#328cb7" opacity="0.42" stroke="#fff" stroke-width="0.35"/>
<circle cx="168.2" cy="238.2" r="3.2" fill="#3697ba" opacity="0.42" stroke="#fff" stroke-width="0.35"/>
<circle cx="268.5" cy="226.3" r="5.0" fill="#111" opacity="0.9"/>
<circle cx="268.5" cy="226.3" r="3.45" fill="#3aa3be" opacity="0.96"/>
<circle cx="265.4" cy="227.1" r="5.0" fill="#111" opacity="0.9"/>
<circle cx="265.4" cy="227.1" r="3.45" fill="#3ca7bf" opacity="0.96"/>
<circle cx="275.8" cy="229.2" r="5.0" fill="#111" opacity="0.9"/>
<circle cx="275.8" cy="229.2" r="3.45" fill="#3eacc1" opacity="0.96"/>
<circle cx="287.8" cy="229.2" r="5.0" fill="#111" opacity="0.9"/>
<circle cx="287.8" cy="229.2" r="3.45" fill="#45b8c4" opacity="0.96"/>
<circle cx="281.7" cy="229.4" r="5.0" fill="#111" opacity="0.9"/>
<circle cx="281.7" cy="229.4" r="3.45" fill="#3fb1c3" opacity="0.96"/>
<circle cx="283.5" cy="229.8" r="5.0" fill="#111" opacity="0.9"/>
<circle cx="283.5" cy="229.8" r="3.45" fill="#48b9c4" opacity="0.96"/>
<circle cx="280.6" cy="230.8" r="5.0" fill="#111" opacity="0.9"/>
<circle cx="280.6" cy="230.8" r="3.45" fill="#41b6c4" opacity="0.96"/>
<circle cx="268.3" cy="231.0" r="5.0" fill="#111" opacity="0.9"/>
<circle cx="268.3" cy="231.0" r="3.45" fill="#40b3c3" opacity="0.96"/>
<circle cx="275.7" cy="231.2" r="5.0" fill="#111" opacity="0.9"/>
<circle cx="275.7" cy="231.2" r="3.45" fill="#46b8c4" opacity="0.96"/>
<circle cx="276.7" cy="232.6" r="5.0" fill="#111" opacity="0.9"/>
<circle cx="276.7" cy="232.6" r="3.45" fill="#4bbac4" opacity="0.96"/>
<circle cx="281.2" cy="233.4" r="5.0" fill="#111" opacity="0.9"/>
<circle cx="281.2" cy="233.4" r="3.45" fill="#5bc0c5" opacity="0.96"/>
<circle cx="285.1" cy="233.4" r="5.0" fill="#111" opacity="0.9"/>
<circle cx="285.1" cy="233.4" r="3.45" fill="#4dbac4" opacity="0.96"/>
<circle cx="278.2" cy="235.2" r="5.0" fill="#111" opacity="0.9"/>
<circle cx="278.2" cy="235.2" r="3.45" fill="#67c4c6" opacity="0.96"/>
<circle cx="274.6" cy="235.4" r="5.0" fill="#111" opacity="0.9"/>
<circle cx="274.6" cy="235.4" r="3.45" fill="#78cbc6" opacity="0.96"/>
<circle cx="274.6" cy="235.4" r="5.0" fill="#111" opacity="0.9"/>
<circle cx="274.6" cy="235.4" r="3.45" fill="#78cbc6" opacity="0.96"/>
<circle cx="278.6" cy="235.4" r="5.0" fill="#111" opacity="0.9"/>
<circle cx="278.6" cy="235.4" r="3.45" fill="#70c8c6" opacity="0.96"/>
<circle cx="191.2" cy="239.0" r="5.0" fill="#111" opacity="0.9"/>
<circle cx="191.2" cy="239.0" r="3.45" fill="#379bbb" opacity="0.96"/>
<circle cx="191.2" cy="239.0" r="5.0" fill="#111" opacity="0.9"/>
<circle cx="191.2" cy="239.0" r="3.45" fill="#379bbb" opacity="0.96"/>
<circle cx="168.3" cy="242.3" r="5.0" fill="#111" opacity="0.9"/>
<circle cx="168.3" cy="242.3" r="3.45" fill="#379abb" opacity="0.96"/>
<rect x="246.5" y="77.0" width="72.0" height="22" rx="3" fill="#fff" fill-opacity="0.94" stroke="#d9d9d9" stroke-width="0.5"/>
<text class="label" x="282.5" y="92.0" text-anchor="middle" font-weight="700">DAREED</text>
<text class="tick" x="540.0" y="348.0" text-anchor="end">solutions 60 | reference contribution 19</text>
<rect x="570.0" y="72.0" width="535.0" height="285.0" rx="4" fill="#fff" stroke="#d9d9d9"/>
<polygon points="825.0,322.0 1000.0,280.0 855.0,228.0 680.0,270.0" fill="#f5f7fa" stroke="none"/>
<polygon points="825.0,322.0 680.0,270.0 680.0,105.0 825.0,157.0" fill="#eef3f7" stroke="none"/>
<polygon points="680.0,270.0 855.0,228.0 855.0,63.0 680.0,105.0" fill="#f8fafc" stroke="none"/>
<line x1="868.8" y1="311.5" x2="723.8" y2="259.5" stroke="#d5dde5" stroke-width="0.7"/>
<line x1="788.8" y1="309.0" x2="963.8" y2="267.0" stroke="#d5dde5" stroke-width="0.7"/>
<line x1="825.0" y1="280.8" x2="680.0" y2="228.8" stroke="#d5dde5" stroke-width="0.7"/>
<line x1="788.8" y1="309.0" x2="788.8" y2="144.0" stroke="#d5dde5" stroke-width="0.7"/>
<line x1="723.8" y1="259.5" x2="723.8" y2="94.5" stroke="#d5dde5" stroke-width="0.7"/>
<line x1="680.0" y1="228.8" x2="855.0" y2="186.8" stroke="#d5dde5" stroke-width="0.7"/>
<line x1="912.5" y1="301.0" x2="767.5" y2="249.0" stroke="#d5dde5" stroke-width="0.7"/>
<line x1="752.5" y1="296.0" x2="927.5" y2="254.0" stroke="#d5dde5" stroke-width="0.7"/>
<line x1="825.0" y1="239.5" x2="680.0" y2="187.5" stroke="#d5dde5" stroke-width="0.7"/>
<line x1="752.5" y1="296.0" x2="752.5" y2="131.0" stroke="#d5dde5" stroke-width="0.7"/>
<line x1="767.5" y1="249.0" x2="767.5" y2="84.0" stroke="#d5dde5" stroke-width="0.7"/>
<line x1="680.0" y1="187.5" x2="855.0" y2="145.5" stroke="#d5dde5" stroke-width="0.7"/>
<line x1="956.2" y1="290.5" x2="811.2" y2="238.5" stroke="#d5dde5" stroke-width="0.7"/>
<line x1="716.2" y1="283.0" x2="891.2" y2="241.0" stroke="#d5dde5" stroke-width="0.7"/>
<line x1="825.0" y1="198.2" x2="680.0" y2="146.2" stroke="#d5dde5" stroke-width="0.7"/>
<line x1="716.2" y1="283.0" x2="716.2" y2="118.0" stroke="#d5dde5" stroke-width="0.7"/>
<line x1="811.2" y1="238.5" x2="811.2" y2="73.5" stroke="#d5dde5" stroke-width="0.7"/>
<line x1="680.0" y1="146.2" x2="855.0" y2="104.2" stroke="#d5dde5" stroke-width="0.7"/>
<line x1="825.0" y1="322.0" x2="1000.0" y2="280.0" stroke="#4b5563" stroke-width="1.15"/>
<line x1="680.0" y1="270.0" x2="855.0" y2="228.0" stroke="#8b98a5" stroke-width="0.8"/>
<line x1="825.0" y1="157.0" x2="1000.0" y2="115.0" stroke="#8b98a5" stroke-width="0.8"/>
<line x1="680.0" y1="105.0" x2="855.0" y2="63.0" stroke="#8b98a5" stroke-width="0.8"/>
<line x1="825.0" y1="322.0" x2="825.0" y2="157.0" stroke="#4b5563" stroke-width="1.15"/>
<line x1="680.0" y1="270.0" x2="680.0" y2="105.0" stroke="#8b98a5" stroke-width="0.8"/>
<line x1="1000.0" y1="280.0" x2="1000.0" y2="115.0" stroke="#8b98a5" stroke-width="0.8"/>
<line x1="855.0" y1="228.0" x2="855.0" y2="63.0" stroke="#8b98a5" stroke-width="0.8"/>
<line x1="825.0" y1="322.0" x2="680.0" y2="270.0" stroke="#4b5563" stroke-width="1.15"/>
<line x1="825.0" y1="157.0" x2="680.0" y2="105.0" stroke="#8b98a5" stroke-width="0.8"/>
<line x1="1000.0" y1="280.0" x2="855.0" y2="228.0" stroke="#8b98a5" stroke-width="0.8"/>
<line x1="1000.0" y1="115.0" x2="855.0" y2="63.0" stroke="#8b98a5" stroke-width="0.8"/>
<text class="tick" x="1010.0" y="309.0" text-anchor="start" font-weight="700">Accuracy reliability</text>
<text class="tick" x="870.8" y="323.5" text-anchor="middle">0.7</text>
<text class="tick" x="914.5" y="313.0" text-anchor="middle">0.8</text>
<text class="tick" x="958.2" y="302.5" text-anchor="middle">0.9</text>
<text class="tick" x="1002.0" y="292.0" text-anchor="middle">1.0</text>
<text class="tick" x="825.0" y="139.0" text-anchor="middle" font-weight="700">Service reliability</text>
<text class="tick" x="820.0" y="283.8" text-anchor="end">0.1</text>
<text class="tick" x="820.0" y="242.5" text-anchor="end">0.2</text>
<text class="tick" x="820.0" y="201.2" text-anchor="end">0.3</text>
<text class="tick" x="820.0" y="160.0" text-anchor="end">0.4</text>
<text class="tick" x="670.0" y="299.0" text-anchor="end" font-weight="700">Delay satisfaction</text>
<text class="tick" x="785.8" y="321.0" text-anchor="end">0.2</text>
<text class="tick" x="749.5" y="308.0" text-anchor="end">0.4</text>
<text class="tick" x="713.2" y="295.0" text-anchor="end">0.6</text>
<text class="tick" x="677.0" y="282.0" text-anchor="end">0.8</text>
<circle cx="836.1" cy="233.8" r="3.2" fill="#60c2c5" opacity="0.42" stroke="#fff" stroke-width="0.35"/>
<circle cx="908.8" cy="123.3" r="5.0" fill="#111" opacity="0.9"/>
<circle cx="908.8" cy="123.3" r="3.45" fill="#2c79b1" opacity="0.96"/>
<circle cx="908.8" cy="123.3" r="5.0" fill="#111" opacity="0.9"/>
<circle cx="908.8" cy="123.3" r="3.45" fill="#2c79b1" opacity="0.96"/>
<circle cx="888.9" cy="136.0" r="5.0" fill="#111" opacity="0.9"/>
<circle cx="888.9" cy="136.0" r="3.45" fill="#338db7" opacity="0.96"/>
<circle cx="888.9" cy="136.0" r="5.0" fill="#111" opacity="0.9"/>
<circle cx="888.9" cy="136.0" r="3.45" fill="#338db7" opacity="0.96"/>
<circle cx="888.0" cy="154.9" r="5.0" fill="#111" opacity="0.9"/>
<circle cx="888.0" cy="154.9" r="3.45" fill="#379abb" opacity="0.96"/>
<circle cx="888.0" cy="154.9" r="5.0" fill="#111" opacity="0.9"/>
<circle cx="888.0" cy="154.9" r="3.45" fill="#379abb" opacity="0.96"/>
<circle cx="886.0" cy="161.6" r="5.0" fill="#111" opacity="0.9"/>
<circle cx="886.0" cy="161.6" r="3.45" fill="#379abb" opacity="0.96"/>
<circle cx="879.8" cy="168.9" r="5.0" fill="#111" opacity="0.9"/>
<circle cx="879.8" cy="168.9" r="3.45" fill="#3799bb" opacity="0.96"/>
<circle cx="876.9" cy="172.3" r="5.0" fill="#111" opacity="0.9"/>
<circle cx="876.9" cy="172.3" r="3.45" fill="#3697ba" opacity="0.96"/>
<circle cx="885.3" cy="178.7" r="5.0" fill="#111" opacity="0.9"/>
<circle cx="885.3" cy="178.7" r="3.45" fill="#389dbc" opacity="0.96"/>
<circle cx="761.3" cy="191.1" r="5.0" fill="#111" opacity="0.9"/>
<circle cx="761.3" cy="191.1" r="3.45" fill="#2d7db2" opacity="0.96"/>
<circle cx="761.6" cy="194.6" r="5.0" fill="#111" opacity="0.9"/>
<circle cx="761.6" cy="194.6" r="3.45" fill="#2d7cb2" opacity="0.96"/>
<circle cx="773.3" cy="194.7" r="5.0" fill="#111" opacity="0.9"/>
<circle cx="773.3" cy="194.7" r="3.45" fill="#2d7db2" opacity="0.96"/>
<circle cx="758.2" cy="195.6" r="5.0" fill="#111" opacity="0.9"/>
<circle cx="758.2" cy="195.6" r="3.45" fill="#2d7db2" opacity="0.96"/>
<circle cx="758.2" cy="195.6" r="5.0" fill="#111" opacity="0.9"/>
<circle cx="758.2" cy="195.6" r="3.45" fill="#2d7db2" opacity="0.96"/>
<circle cx="771.1" cy="195.7" r="5.0" fill="#111" opacity="0.9"/>
<circle cx="771.1" cy="195.7" r="3.45" fill="#2d7eb2" opacity="0.96"/>
<circle cx="747.2" cy="195.8" r="5.0" fill="#111" opacity="0.9"/>
<circle cx="747.2" cy="195.8" r="3.45" fill="#2d7db2" opacity="0.96"/>
<circle cx="748.1" cy="197.5" r="5.0" fill="#111" opacity="0.9"/>
<circle cx="748.1" cy="197.5" r="3.45" fill="#2d7db2" opacity="0.96"/>
<circle cx="748.0" cy="198.6" r="5.0" fill="#111" opacity="0.9"/>
<circle cx="748.0" cy="198.6" r="3.45" fill="#2d7cb2" opacity="0.96"/>
<circle cx="785.5" cy="198.9" r="5.0" fill="#111" opacity="0.9"/>
<circle cx="785.5" cy="198.9" r="3.45" fill="#2f84b4" opacity="0.96"/>
<circle cx="786.6" cy="199.3" r="5.0" fill="#111" opacity="0.9"/>
<circle cx="786.6" cy="199.3" r="3.45" fill="#2f82b3" opacity="0.96"/>
<circle cx="786.3" cy="200.1" r="5.0" fill="#111" opacity="0.9"/>
<circle cx="786.3" cy="200.1" r="3.45" fill="#2e80b3" opacity="0.96"/>
<circle cx="765.1" cy="200.7" r="5.0" fill="#111" opacity="0.9"/>
<circle cx="765.1" cy="200.7" r="3.45" fill="#2c7cb1" opacity="0.96"/>
<circle cx="789.6" cy="200.8" r="5.0" fill="#111" opacity="0.9"/>
<circle cx="789.6" cy="200.8" r="3.45" fill="#2e81b3" opacity="0.96"/>
<circle cx="782.5" cy="201.4" r="5.0" fill="#111" opacity="0.9"/>
<circle cx="782.5" cy="201.4" r="3.45" fill="#2f82b4" opacity="0.96"/>
<circle cx="798.0" cy="203.8" r="5.0" fill="#111" opacity="0.9"/>
<circle cx="798.0" cy="203.8" r="3.45" fill="#3188b5" opacity="0.96"/>
<circle cx="795.8" cy="204.9" r="5.0" fill="#111" opacity="0.9"/>
<circle cx="795.8" cy="204.9" r="3.45" fill="#3085b4" opacity="0.96"/>
<circle cx="808.4" cy="207.6" r="5.0" fill="#111" opacity="0.9"/>
<circle cx="808.4" cy="207.6" r="3.45" fill="#3187b5" opacity="0.96"/>
<circle cx="792.2" cy="210.3" r="5.0" fill="#111" opacity="0.9"/>
<circle cx="792.2" cy="210.3" r="3.45" fill="#3085b4" opacity="0.96"/>
<circle cx="800.3" cy="213.4" r="5.0" fill="#111" opacity="0.9"/>
<circle cx="800.3" cy="213.4" r="3.45" fill="#328ab6" opacity="0.96"/>
<circle cx="808.2" cy="213.8" r="5.0" fill="#111" opacity="0.9"/>
<circle cx="808.2" cy="213.8" r="3.45" fill="#3492b9" opacity="0.96"/>
<circle cx="816.0" cy="214.0" r="5.0" fill="#111" opacity="0.9"/>
<circle cx="816.0" cy="214.0" r="3.45" fill="#3593b9" opacity="0.96"/>
<circle cx="767.5" cy="215.1" r="5.0" fill="#111" opacity="0.9"/>
<circle cx="767.5" cy="215.1" r="3.45" fill="#3086b5" opacity="0.96"/>
<circle cx="812.7" cy="215.2" r="5.0" fill="#111" opacity="0.9"/>
<circle cx="812.7" cy="215.2" r="3.45" fill="#3696ba" opacity="0.96"/>
<circle cx="810.3" cy="215.8" r="5.0" fill="#111" opacity="0.9"/>
<circle cx="810.3" cy="215.8" r="3.45" fill="#338fb8" opacity="0.96"/>
<circle cx="807.7" cy="216.2" r="5.0" fill="#111" opacity="0.9"/>
<circle cx="807.7" cy="216.2" r="3.45" fill="#3594b9" opacity="0.96"/>
<circle cx="822.6" cy="217.3" r="5.0" fill="#111" opacity="0.9"/>
<circle cx="822.6" cy="217.3" r="3.45" fill="#379bbb" opacity="0.96"/>
<circle cx="803.7" cy="218.5" r="5.0" fill="#111" opacity="0.9"/>
<circle cx="803.7" cy="218.5" r="3.45" fill="#338eb7" opacity="0.96"/>
<circle cx="810.6" cy="218.8" r="5.0" fill="#111" opacity="0.9"/>
<circle cx="810.6" cy="218.8" r="3.45" fill="#3492b9" opacity="0.96"/>
<circle cx="829.0" cy="220.7" r="5.0" fill="#111" opacity="0.9"/>
<circle cx="829.0" cy="220.7" r="3.45" fill="#3aa3be" opacity="0.96"/>
<circle cx="838.0" cy="222.8" r="5.0" fill="#111" opacity="0.9"/>
<circle cx="838.0" cy="222.8" r="3.45" fill="#3dabc0" opacity="0.96"/>
<circle cx="823.2" cy="224.3" r="5.0" fill="#111" opacity="0.9"/>
<circle cx="823.2" cy="224.3" r="3.45" fill="#39a0bd" opacity="0.96"/>
<circle cx="829.6" cy="224.9" r="5.0" fill="#111" opacity="0.9"/>
<circle cx="829.6" cy="224.9" r="3.45" fill="#3ba5bf" opacity="0.96"/>
<circle cx="822.7" cy="225.9" r="5.0" fill="#111" opacity="0.9"/>
<circle cx="822.7" cy="225.9" r="3.45" fill="#3ca7bf" opacity="0.96"/>
<circle cx="840.1" cy="226.6" r="5.0" fill="#111" opacity="0.9"/>
<circle cx="840.1" cy="226.6" r="3.45" fill="#3fb0c2" opacity="0.96"/>
<circle cx="834.5" cy="227.7" r="5.0" fill="#111" opacity="0.9"/>
<circle cx="834.5" cy="227.7" r="3.45" fill="#3eadc1" opacity="0.96"/>
<circle cx="840.5" cy="227.9" r="5.0" fill="#111" opacity="0.9"/>
<circle cx="840.5" cy="227.9" r="3.45" fill="#40b2c3" opacity="0.96"/>
<circle cx="845.5" cy="228.1" r="5.0" fill="#111" opacity="0.9"/>
<circle cx="845.5" cy="228.1" r="3.45" fill="#40b4c3" opacity="0.96"/>
<circle cx="824.4" cy="229.2" r="5.0" fill="#111" opacity="0.9"/>
<circle cx="824.4" cy="229.2" r="3.45" fill="#3eafc2" opacity="0.96"/>
<circle cx="835.8" cy="229.3" r="5.0" fill="#111" opacity="0.9"/>
<circle cx="835.8" cy="229.3" r="3.45" fill="#40b4c3" opacity="0.96"/>
<circle cx="836.2" cy="230.7" r="5.0" fill="#111" opacity="0.9"/>
<circle cx="836.2" cy="230.7" r="3.45" fill="#40b2c3" opacity="0.96"/>
<circle cx="831.9" cy="232.2" r="5.0" fill="#111" opacity="0.9"/>
<circle cx="831.9" cy="232.2" r="3.45" fill="#4fbbc5" opacity="0.96"/>
<circle cx="835.4" cy="232.3" r="5.0" fill="#111" opacity="0.9"/>
<circle cx="835.4" cy="232.3" r="3.45" fill="#4bbac4" opacity="0.96"/>
<circle cx="840.8" cy="234.5" r="5.0" fill="#111" opacity="0.9"/>
<circle cx="840.8" cy="234.5" r="3.45" fill="#69c5c6" opacity="0.96"/>
<circle cx="842.2" cy="235.4" r="5.0" fill="#111" opacity="0.9"/>
<circle cx="842.2" cy="235.4" r="3.45" fill="#72c9c6" opacity="0.96"/>
<circle cx="843.2" cy="236.3" r="5.0" fill="#111" opacity="0.9"/>
<circle cx="843.2" cy="236.3" r="3.45" fill="#7ecdc7" opacity="0.96"/>
<circle cx="845.8" cy="236.3" r="5.0" fill="#111" opacity="0.9"/>
<circle cx="845.8" cy="236.3" r="3.45" fill="#7dcdc7" opacity="0.96"/>
<circle cx="849.3" cy="236.9" r="5.0" fill="#111" opacity="0.9"/>
<circle cx="849.3" cy="236.9" r="3.45" fill="#76cac6" opacity="0.96"/>
<circle cx="847.6" cy="237.5" r="5.0" fill="#111" opacity="0.9"/>
<circle cx="847.6" cy="237.5" r="3.45" fill="#7ccdc6" opacity="0.96"/>
<rect x="801.5" y="77.0" width="72.0" height="22" rx="3" fill="#fff" fill-opacity="0.94" stroke="#d9d9d9" stroke-width="0.5"/>
<text class="label" x="837.5" y="92.0" text-anchor="middle" font-weight="700">NSGA-ED</text>
<text class="tick" x="1095.0" y="348.0" text-anchor="end">solutions 60 | reference contribution 59</text>
<rect x="15.0" y="382.0" width="535.0" height="285.0" rx="4" fill="#fff" stroke="#d9d9d9"/>
<polygon points="270.0,632.0 445.0,590.0 300.0,538.0 125.0,580.0" fill="#f5f7fa" stroke="none"/>
<polygon points="270.0,632.0 125.0,580.0 125.0,415.0 270.0,467.0" fill="#eef3f7" stroke="none"/>
<polygon points="125.0,580.0 300.0,538.0 300.0,373.0 125.0,415.0" fill="#f8fafc" stroke="none"/>
<line x1="313.8" y1="621.5" x2="168.8" y2="569.5" stroke="#d5dde5" stroke-width="0.7"/>
<line x1="233.8" y1="619.0" x2="408.8" y2="577.0" stroke="#d5dde5" stroke-width="0.7"/>
<line x1="270.0" y1="590.8" x2="125.0" y2="538.8" stroke="#d5dde5" stroke-width="0.7"/>
<line x1="233.8" y1="619.0" x2="233.8" y2="454.0" stroke="#d5dde5" stroke-width="0.7"/>
<line x1="168.8" y1="569.5" x2="168.8" y2="404.5" stroke="#d5dde5" stroke-width="0.7"/>
<line x1="125.0" y1="538.8" x2="300.0" y2="496.8" stroke="#d5dde5" stroke-width="0.7"/>
<line x1="357.5" y1="611.0" x2="212.5" y2="559.0" stroke="#d5dde5" stroke-width="0.7"/>
<line x1="197.5" y1="606.0" x2="372.5" y2="564.0" stroke="#d5dde5" stroke-width="0.7"/>
<line x1="270.0" y1="549.5" x2="125.0" y2="497.5" stroke="#d5dde5" stroke-width="0.7"/>
<line x1="197.5" y1="606.0" x2="197.5" y2="441.0" stroke="#d5dde5" stroke-width="0.7"/>
<line x1="212.5" y1="559.0" x2="212.5" y2="394.0" stroke="#d5dde5" stroke-width="0.7"/>
<line x1="125.0" y1="497.5" x2="300.0" y2="455.5" stroke="#d5dde5" stroke-width="0.7"/>
<line x1="401.2" y1="600.5" x2="256.2" y2="548.5" stroke="#d5dde5" stroke-width="0.7"/>
<line x1="161.2" y1="593.0" x2="336.2" y2="551.0" stroke="#d5dde5" stroke-width="0.7"/>
<line x1="270.0" y1="508.2" x2="125.0" y2="456.2" stroke="#d5dde5" stroke-width="0.7"/>
<line x1="161.2" y1="593.0" x2="161.2" y2="428.0" stroke="#d5dde5" stroke-width="0.7"/>
<line x1="256.2" y1="548.5" x2="256.2" y2="383.5" stroke="#d5dde5" stroke-width="0.7"/>
<line x1="125.0" y1="456.2" x2="300.0" y2="414.2" stroke="#d5dde5" stroke-width="0.7"/>
<line x1="270.0" y1="632.0" x2="445.0" y2="590.0" stroke="#4b5563" stroke-width="1.15"/>
<line x1="125.0" y1="580.0" x2="300.0" y2="538.0" stroke="#8b98a5" stroke-width="0.8"/>
<line x1="270.0" y1="467.0" x2="445.0" y2="425.0" stroke="#8b98a5" stroke-width="0.8"/>
<line x1="125.0" y1="415.0" x2="300.0" y2="373.0" stroke="#8b98a5" stroke-width="0.8"/>
<line x1="270.0" y1="632.0" x2="270.0" y2="467.0" stroke="#4b5563" stroke-width="1.15"/>
<line x1="125.0" y1="580.0" x2="125.0" y2="415.0" stroke="#8b98a5" stroke-width="0.8"/>
<line x1="445.0" y1="590.0" x2="445.0" y2="425.0" stroke="#8b98a5" stroke-width="0.8"/>
<line x1="300.0" y1="538.0" x2="300.0" y2="373.0" stroke="#8b98a5" stroke-width="0.8"/>
<line x1="270.0" y1="632.0" x2="125.0" y2="580.0" stroke="#4b5563" stroke-width="1.15"/>
<line x1="270.0" y1="467.0" x2="125.0" y2="415.0" stroke="#8b98a5" stroke-width="0.8"/>
<line x1="445.0" y1="590.0" x2="300.0" y2="538.0" stroke="#8b98a5" stroke-width="0.8"/>
<line x1="445.0" y1="425.0" x2="300.0" y2="373.0" stroke="#8b98a5" stroke-width="0.8"/>
<text class="tick" x="455.0" y="619.0" text-anchor="start" font-weight="700">Accuracy reliability</text>
<text class="tick" x="315.8" y="633.5" text-anchor="middle">0.7</text>
<text class="tick" x="359.5" y="623.0" text-anchor="middle">0.8</text>
<text class="tick" x="403.2" y="612.5" text-anchor="middle">0.9</text>
<text class="tick" x="447.0" y="602.0" text-anchor="middle">1.0</text>
<text class="tick" x="270.0" y="449.0" text-anchor="middle" font-weight="700">Service reliability</text>
<text class="tick" x="265.0" y="593.8" text-anchor="end">0.1</text>
<text class="tick" x="265.0" y="552.5" text-anchor="end">0.2</text>
<text class="tick" x="265.0" y="511.2" text-anchor="end">0.3</text>
<text class="tick" x="265.0" y="470.0" text-anchor="end">0.4</text>
<text class="tick" x="115.0" y="609.0" text-anchor="end" font-weight="700">Delay satisfaction</text>
<text class="tick" x="230.8" y="631.0" text-anchor="end">0.2</text>
<text class="tick" x="194.5" y="618.0" text-anchor="end">0.4</text>
<text class="tick" x="158.2" y="605.0" text-anchor="end">0.6</text>
<text class="tick" x="122.0" y="592.0" text-anchor="end">0.8</text>
<circle cx="234.9" cy="567.5" r="3.2" fill="#5bc0c5" opacity="0.42" stroke="#fff" stroke-width="0.35"/>
<circle cx="224.4" cy="576.6" r="3.2" fill="#5bc0c5" opacity="0.42" stroke="#fff" stroke-width="0.35"/>
<circle cx="285.1" cy="578.8" r="3.2" fill="#b8e4c9" opacity="0.42" stroke="#fff" stroke-width="0.35"/>
<circle cx="274.8" cy="579.0" r="3.2" fill="#c6e9ca" opacity="0.42" stroke="#fff" stroke-width="0.35"/>
<circle cx="254.4" cy="579.8" r="3.2" fill="#59bfc5" opacity="0.42" stroke="#fff" stroke-width="0.35"/>
<circle cx="281.6" cy="580.0" r="3.2" fill="#ade0c9" opacity="0.42" stroke="#fff" stroke-width="0.35"/>
<circle cx="276.1" cy="580.4" r="3.2" fill="#a8dec8" opacity="0.42" stroke="#fff" stroke-width="0.35"/>
<circle cx="287.7" cy="583.2" r="3.2" fill="#98d7c8" opacity="0.42" stroke="#fff" stroke-width="0.35"/>
<circle cx="284.4" cy="584.6" r="3.2" fill="#a0dbc8" opacity="0.42" stroke="#fff" stroke-width="0.35"/>
<circle cx="287.4" cy="584.7" r="3.2" fill="#9cd9c8" opacity="0.42" stroke="#fff" stroke-width="0.35"/>
<circle cx="296.6" cy="586.0" r="3.2" fill="#99d8c8" opacity="0.42" stroke="#fff" stroke-width="0.35"/>
<circle cx="299.0" cy="587.7" r="3.2" fill="#c2e8c9" opacity="0.42" stroke="#fff" stroke-width="0.35"/>
<circle cx="307.3" cy="588.4" r="3.2" fill="#7ecdc7" opacity="0.42" stroke="#fff" stroke-width="0.35"/>
<circle cx="316.3" cy="588.8" r="3.2" fill="#afe0c9" opacity="0.42" stroke="#fff" stroke-width="0.35"/>
<circle cx="285.0" cy="589.2" r="3.2" fill="#7ecdc7" opacity="0.42" stroke="#fff" stroke-width="0.35"/>
<circle cx="298.4" cy="589.3" r="3.2" fill="#91d5c7" opacity="0.42" stroke="#fff" stroke-width="0.35"/>
<circle cx="295.5" cy="590.0" r="3.2" fill="#8bd3c7" opacity="0.42" stroke="#fff" stroke-width="0.35"/>
<circle cx="318.0" cy="590.2" r="3.2" fill="#a8dec8" opacity="0.42" stroke="#fff" stroke-width="0.35"/>
<circle cx="318.7" cy="590.7" r="3.2" fill="#94d6c7" opacity="0.42" stroke="#fff" stroke-width="0.35"/>
<circle cx="301.4" cy="590.7" r="3.2" fill="#82cfc7" opacity="0.42" stroke="#fff" stroke-width="0.35"/>
<circle cx="325.8" cy="592.5" r="3.2" fill="#b4e2c9" opacity="0.42" stroke="#fff" stroke-width="0.35"/>
<circle cx="286.8" cy="597.7" r="3.2" fill="#53bdc5" opacity="0.42" stroke="#fff" stroke-width="0.35"/>
<circle cx="319.0" cy="597.9" r="3.2" fill="#77cbc6" opacity="0.42" stroke="#fff" stroke-width="0.35"/>
<circle cx="351.5" cy="598.3" r="3.2" fill="#c9eaca" opacity="0.42" stroke="#fff" stroke-width="0.35"/>
<circle cx="337.2" cy="598.9" r="3.2" fill="#c7e9ca" opacity="0.42" stroke="#fff" stroke-width="0.35"/>
<circle cx="328.9" cy="599.5" r="3.2" fill="#76cac6" opacity="0.42" stroke="#fff" stroke-width="0.35"/>
<circle cx="362.3" cy="599.7" r="3.2" fill="#87d1c7" opacity="0.42" stroke="#fff" stroke-width="0.35"/>
<circle cx="349.7" cy="600.2" r="3.2" fill="#c6e9ca" opacity="0.42" stroke="#fff" stroke-width="0.35"/>
<circle cx="357.9" cy="600.2" r="3.2" fill="#86d1c7" opacity="0.42" stroke="#fff" stroke-width="0.35"/>
<circle cx="327.7" cy="600.8" r="3.2" fill="#82cfc7" opacity="0.42" stroke="#fff" stroke-width="0.35"/>
<circle cx="328.4" cy="601.7" r="3.2" fill="#88d1c7" opacity="0.42" stroke="#fff" stroke-width="0.35"/>
<rect x="246.5" y="387.0" width="72.0" height="22" rx="3" fill="#fff" fill-opacity="0.94" stroke="#d9d9d9" stroke-width="0.5"/>
<text class="label" x="282.5" y="402.0" text-anchor="middle" font-weight="700">RDA</text>
<text class="tick" x="540.0" y="658.0" text-anchor="end">solutions 31 | reference contribution 0</text>
<rect x="570.0" y="382.0" width="535.0" height="285.0" rx="4" fill="#fff" stroke="#d9d9d9"/>
<polygon points="825.0,632.0 1000.0,590.0 855.0,538.0 680.0,580.0" fill="#f5f7fa" stroke="none"/>
<polygon points="825.0,632.0 680.0,580.0 680.0,415.0 825.0,467.0" fill="#eef3f7" stroke="none"/>
<polygon points="680.0,580.0 855.0,538.0 855.0,373.0 680.0,415.0" fill="#f8fafc" stroke="none"/>
<line x1="868.8" y1="621.5" x2="723.8" y2="569.5" stroke="#d5dde5" stroke-width="0.7"/>
<line x1="788.8" y1="619.0" x2="963.8" y2="577.0" stroke="#d5dde5" stroke-width="0.7"/>
<line x1="825.0" y1="590.8" x2="680.0" y2="538.8" stroke="#d5dde5" stroke-width="0.7"/>
<line x1="788.8" y1="619.0" x2="788.8" y2="454.0" stroke="#d5dde5" stroke-width="0.7"/>
<line x1="723.8" y1="569.5" x2="723.8" y2="404.5" stroke="#d5dde5" stroke-width="0.7"/>
<line x1="680.0" y1="538.8" x2="855.0" y2="496.8" stroke="#d5dde5" stroke-width="0.7"/>
<line x1="912.5" y1="611.0" x2="767.5" y2="559.0" stroke="#d5dde5" stroke-width="0.7"/>
<line x1="752.5" y1="606.0" x2="927.5" y2="564.0" stroke="#d5dde5" stroke-width="0.7"/>
<line x1="825.0" y1="549.5" x2="680.0" y2="497.5" stroke="#d5dde5" stroke-width="0.7"/>
<line x1="752.5" y1="606.0" x2="752.5" y2="441.0" stroke="#d5dde5" stroke-width="0.7"/>
<line x1="767.5" y1="559.0" x2="767.5" y2="394.0" stroke="#d5dde5" stroke-width="0.7"/>
<line x1="680.0" y1="497.5" x2="855.0" y2="455.5" stroke="#d5dde5" stroke-width="0.7"/>
<line x1="956.2" y1="600.5" x2="811.2" y2="548.5" stroke="#d5dde5" stroke-width="0.7"/>
<line x1="716.2" y1="593.0" x2="891.2" y2="551.0" stroke="#d5dde5" stroke-width="0.7"/>
<line x1="825.0" y1="508.2" x2="680.0" y2="456.2" stroke="#d5dde5" stroke-width="0.7"/>
<line x1="716.2" y1="593.0" x2="716.2" y2="428.0" stroke="#d5dde5" stroke-width="0.7"/>
<line x1="811.2" y1="548.5" x2="811.2" y2="383.5" stroke="#d5dde5" stroke-width="0.7"/>
<line x1="680.0" y1="456.2" x2="855.0" y2="414.2" stroke="#d5dde5" stroke-width="0.7"/>
<line x1="825.0" y1="632.0" x2="1000.0" y2="590.0" stroke="#4b5563" stroke-width="1.15"/>
<line x1="680.0" y1="580.0" x2="855.0" y2="538.0" stroke="#8b98a5" stroke-width="0.8"/>
<line x1="825.0" y1="467.0" x2="1000.0" y2="425.0" stroke="#8b98a5" stroke-width="0.8"/>
<line x1="680.0" y1="415.0" x2="855.0" y2="373.0" stroke="#8b98a5" stroke-width="0.8"/>
<line x1="825.0" y1="632.0" x2="825.0" y2="467.0" stroke="#4b5563" stroke-width="1.15"/>
<line x1="680.0" y1="580.0" x2="680.0" y2="415.0" stroke="#8b98a5" stroke-width="0.8"/>
<line x1="1000.0" y1="590.0" x2="1000.0" y2="425.0" stroke="#8b98a5" stroke-width="0.8"/>
<line x1="855.0" y1="538.0" x2="855.0" y2="373.0" stroke="#8b98a5" stroke-width="0.8"/>
<line x1="825.0" y1="632.0" x2="680.0" y2="580.0" stroke="#4b5563" stroke-width="1.15"/>
<line x1="825.0" y1="467.0" x2="680.0" y2="415.0" stroke="#8b98a5" stroke-width="0.8"/>
<line x1="1000.0" y1="590.0" x2="855.0" y2="538.0" stroke="#8b98a5" stroke-width="0.8"/>
<line x1="1000.0" y1="425.0" x2="855.0" y2="373.0" stroke="#8b98a5" stroke-width="0.8"/>
<text class="tick" x="1010.0" y="619.0" text-anchor="start" font-weight="700">Accuracy reliability</text>
<text class="tick" x="870.8" y="633.5" text-anchor="middle">0.7</text>
<text class="tick" x="914.5" y="623.0" text-anchor="middle">0.8</text>
<text class="tick" x="958.2" y="612.5" text-anchor="middle">0.9</text>
<text class="tick" x="1002.0" y="602.0" text-anchor="middle">1.0</text>
<text class="tick" x="825.0" y="449.0" text-anchor="middle" font-weight="700">Service reliability</text>
<text class="tick" x="820.0" y="593.8" text-anchor="end">0.1</text>
<text class="tick" x="820.0" y="552.5" text-anchor="end">0.2</text>
<text class="tick" x="820.0" y="511.2" text-anchor="end">0.3</text>
<text class="tick" x="820.0" y="470.0" text-anchor="end">0.4</text>
<text class="tick" x="670.0" y="609.0" text-anchor="end" font-weight="700">Delay satisfaction</text>
<text class="tick" x="785.8" y="631.0" text-anchor="end">0.2</text>
<text class="tick" x="749.5" y="618.0" text-anchor="end">0.4</text>
<text class="tick" x="713.2" y="605.0" text-anchor="end">0.6</text>
<text class="tick" x="677.0" y="592.0" text-anchor="end">0.8</text>
<circle cx="882.2" cy="484.7" r="3.2" fill="#379abb" opacity="0.42" stroke="#fff" stroke-width="0.35"/>
<circle cx="812.7" cy="556.3" r="3.2" fill="#5fc2c5" opacity="0.42" stroke="#fff" stroke-width="0.35"/>
<circle cx="802.1" cy="556.3" r="3.2" fill="#59bfc5" opacity="0.42" stroke="#fff" stroke-width="0.35"/>
<circle cx="815.0" cy="556.7" r="3.2" fill="#6ec7c6" opacity="0.42" stroke="#fff" stroke-width="0.35"/>
<circle cx="810.6" cy="556.8" r="3.2" fill="#4ebbc5" opacity="0.42" stroke="#fff" stroke-width="0.35"/>
<circle cx="814.8" cy="556.8" r="3.2" fill="#6dc7c6" opacity="0.42" stroke="#fff" stroke-width="0.35"/>
<circle cx="808.1" cy="556.9" r="3.2" fill="#57bec5" opacity="0.42" stroke="#fff" stroke-width="0.35"/>
<circle cx="810.1" cy="556.9" r="3.2" fill="#55bec5" opacity="0.42" stroke="#fff" stroke-width="0.35"/>
<circle cx="815.9" cy="556.9" r="3.2" fill="#63c3c5" opacity="0.42" stroke="#fff" stroke-width="0.35"/>
<circle cx="796.2" cy="557.0" r="3.2" fill="#59bfc5" opacity="0.42" stroke="#fff" stroke-width="0.35"/>
<circle cx="815.0" cy="557.1" r="3.2" fill="#64c3c5" opacity="0.42" stroke="#fff" stroke-width="0.35"/>
<circle cx="820.5" cy="557.1" r="3.2" fill="#67c5c6" opacity="0.42" stroke="#fff" stroke-width="0.35"/>
<circle cx="795.2" cy="557.1" r="3.2" fill="#59bfc5" opacity="0.42" stroke="#fff" stroke-width="0.35"/>
<circle cx="815.6" cy="557.4" r="3.2" fill="#60c2c5" opacity="0.42" stroke="#fff" stroke-width="0.35"/>
<circle cx="817.5" cy="557.4" r="3.2" fill="#6ec7c6" opacity="0.42" stroke="#fff" stroke-width="0.35"/>
<circle cx="817.8" cy="557.5" r="3.2" fill="#6fc8c6" opacity="0.42" stroke="#fff" stroke-width="0.35"/>
<circle cx="806.9" cy="557.5" r="3.2" fill="#4fbbc5" opacity="0.42" stroke="#fff" stroke-width="0.35"/>
<circle cx="812.4" cy="557.6" r="3.2" fill="#61c2c5" opacity="0.42" stroke="#fff" stroke-width="0.35"/>
<circle cx="824.6" cy="557.8" r="3.2" fill="#68c5c6" opacity="0.42" stroke="#fff" stroke-width="0.35"/>
<circle cx="795.4" cy="558.6" r="3.2" fill="#40b2c3" opacity="0.42" stroke="#fff" stroke-width="0.35"/>
<circle cx="796.9" cy="558.8" r="3.2" fill="#4cbac4" opacity="0.42" stroke="#fff" stroke-width="0.35"/>
<circle cx="795.0" cy="559.3" r="3.2" fill="#61c2c5" opacity="0.42" stroke="#fff" stroke-width="0.35"/>
<circle cx="818.7" cy="559.4" r="3.2" fill="#4ebbc5" opacity="0.42" stroke="#fff" stroke-width="0.35"/>
<circle cx="817.1" cy="559.5" r="3.2" fill="#46b8c4" opacity="0.42" stroke="#fff" stroke-width="0.35"/>
<circle cx="832.6" cy="559.7" r="3.2" fill="#81cfc7" opacity="0.42" stroke="#fff" stroke-width="0.35"/>
<circle cx="826.3" cy="559.7" r="3.2" fill="#8ed3c7" opacity="0.42" stroke="#fff" stroke-width="0.35"/>
<circle cx="835.5" cy="559.8" r="3.2" fill="#a2dbc8" opacity="0.42" stroke="#fff" stroke-width="0.35"/>
<circle cx="821.0" cy="559.9" r="3.2" fill="#62c3c5" opacity="0.42" stroke="#fff" stroke-width="0.35"/>
<circle cx="819.2" cy="560.0" r="3.2" fill="#56bec5" opacity="0.42" stroke="#fff" stroke-width="0.35"/>
<circle cx="834.0" cy="560.3" r="3.2" fill="#a3dcc8" opacity="0.42" stroke="#fff" stroke-width="0.35"/>
<circle cx="812.8" cy="560.5" r="3.2" fill="#46b8c4" opacity="0.42" stroke="#fff" stroke-width="0.35"/>
<circle cx="805.3" cy="560.7" r="3.2" fill="#50bcc5" opacity="0.42" stroke="#fff" stroke-width="0.35"/>
<circle cx="797.6" cy="561.3" r="3.2" fill="#4bbac4" opacity="0.42" stroke="#fff" stroke-width="0.35"/>
<circle cx="793.0" cy="561.8" r="3.2" fill="#41b5c4" opacity="0.42" stroke="#fff" stroke-width="0.35"/>
<circle cx="785.5" cy="562.4" r="3.2" fill="#42b6c4" opacity="0.42" stroke="#fff" stroke-width="0.35"/>
<circle cx="773.6" cy="562.4" r="3.2" fill="#41b5c4" opacity="0.42" stroke="#fff" stroke-width="0.35"/>
<circle cx="822.7" cy="562.5" r="3.2" fill="#90d4c7" opacity="0.42" stroke="#fff" stroke-width="0.35"/>
<circle cx="775.1" cy="562.5" r="3.2" fill="#40b5c4" opacity="0.42" stroke="#fff" stroke-width="0.35"/>
<circle cx="781.0" cy="562.6" r="3.2" fill="#43b7c4" opacity="0.42" stroke="#fff" stroke-width="0.35"/>
<circle cx="814.0" cy="562.7" r="3.2" fill="#90d4c7" opacity="0.42" stroke="#fff" stroke-width="0.35"/>
<circle cx="820.5" cy="562.9" r="3.2" fill="#8ed4c7" opacity="0.42" stroke="#fff" stroke-width="0.35"/>
<circle cx="790.6" cy="563.1" r="3.2" fill="#56bec5" opacity="0.42" stroke="#fff" stroke-width="0.35"/>
<circle cx="789.3" cy="563.4" r="3.2" fill="#4dbbc5" opacity="0.42" stroke="#fff" stroke-width="0.35"/>
<circle cx="777.0" cy="563.5" r="3.2" fill="#3fb0c2" opacity="0.42" stroke="#fff" stroke-width="0.35"/>
<circle cx="817.7" cy="563.6" r="3.2" fill="#8ed3c7" opacity="0.42" stroke="#fff" stroke-width="0.35"/>
<circle cx="786.5" cy="564.1" r="3.2" fill="#41b6c4" opacity="0.42" stroke="#fff" stroke-width="0.35"/>
<circle cx="797.7" cy="564.7" r="3.2" fill="#49b9c4" opacity="0.42" stroke="#fff" stroke-width="0.35"/>
<circle cx="793.2" cy="567.3" r="3.2" fill="#3fb0c2" opacity="0.42" stroke="#fff" stroke-width="0.35"/>
<circle cx="908.9" cy="429.4" r="5.0" fill="#111" opacity="0.9"/>
<circle cx="908.9" cy="429.4" r="3.45" fill="#2c79b1" opacity="0.96"/>
<circle cx="886.0" cy="458.1" r="5.0" fill="#111" opacity="0.9"/>
<circle cx="886.0" cy="458.1" r="3.45" fill="#338db7" opacity="0.96"/>
<rect x="801.5" y="387.0" width="72.0" height="22" rx="3" fill="#fff" fill-opacity="0.94" stroke="#d9d9d9" stroke-width="0.5"/>
<text class="label" x="837.5" y="402.0" text-anchor="middle" font-weight="700">SAA</text>
<text class="tick" x="1095.0" y="658.0" text-anchor="end">solutions 50 | reference contribution 2</text>
<text class="legend" x="318.0" y="722.0" text-anchor="end">Energy satisfaction</text>
<rect x="330.0" y="712.0" width="10.2" height="12" fill="#ffffcc" stroke="none"/>
<rect x="340.0" y="712.0" width="10.2" height="12" fill="#f1facb" stroke="none"/>
<rect x="350.0" y="712.0" width="10.2" height="12" fill="#e3f4cb" stroke="none"/>
<rect x="360.0" y="712.0" width="10.2" height="12" fill="#d5efca" stroke="none"/>
<rect x="370.0" y="712.0" width="10.2" height="12" fill="#c7e9ca" stroke="none"/>
<rect x="380.0" y="712.0" width="10.2" height="12" fill="#b9e4c9" stroke="none"/>
<rect x="390.0" y="712.0" width="10.2" height="12" fill="#abdfc8" stroke="none"/>
<rect x="400.0" y="712.0" width="10.2" height="12" fill="#9cd9c8" stroke="none"/>
<rect x="410.0" y="712.0" width="10.2" height="12" fill="#8ed4c7" stroke="none"/>
<rect x="420.0" y="712.0" width="10.2" height="12" fill="#80cec7" stroke="none"/>
<rect x="430.0" y="712.0" width="10.2" height="12" fill="#72c9c6" stroke="none"/>
<rect x="440.0" y="712.0" width="10.2" height="12" fill="#64c4c5" stroke="none"/>
<rect x="450.0" y="712.0" width="10.2" height="12" fill="#56bec5" stroke="none"/>
<rect x="460.0" y="712.0" width="10.2" height="12" fill="#48b9c4" stroke="none"/>
<rect x="470.0" y="712.0" width="10.2" height="12" fill="#40b3c3" stroke="none"/>
<rect x="480.0" y="712.0" width="10.2" height="12" fill="#3eacc1" stroke="none"/>
<rect x="490.0" y="712.0" width="10.2" height="12" fill="#3ba6bf" stroke="none"/>
<rect x="500.0" y="712.0" width="10.2" height="12" fill="#399fbd" stroke="none"/>
<rect x="510.0" y="712.0" width="10.2" height="12" fill="#3799bb" stroke="none"/>
<rect x="520.0" y="712.0" width="10.2" height="12" fill="#3492b9" stroke="none"/>
<rect x="530.0" y="712.0" width="10.2" height="12" fill="#328cb7" stroke="none"/>
<rect x="540.0" y="712.0" width="10.2" height="12" fill="#3085b4" stroke="none"/>
<rect x="550.0" y="712.0" width="10.2" height="12" fill="#2d7fb2" stroke="none"/>
<rect x="560.0" y="712.0" width="10.2" height="12" fill="#2b78b0" stroke="none"/>
<rect x="570.0" y="712.0" width="10.2" height="12" fill="#2972ae" stroke="none"/>
<rect x="580.0" y="712.0" width="10.2" height="12" fill="#276bac" stroke="none"/>
<rect x="590.0" y="712.0" width="10.2" height="12" fill="#2465aa" stroke="none"/>
<rect x="600.0" y="712.0" width="10.2" height="12" fill="#225ea8" stroke="none"/>
<rect x="330.0" y="712.0" width="280.0" height="12" fill="none" stroke="#777" stroke-width="0.5"/>
<text class="tick" x="330.0" y="739.0">0.5 (low)</text>
<text class="tick" x="610.0" y="739.0" text-anchor="end">1.0 (high)</text>
<circle cx="745" cy="718" r="5" fill="#111"/>
<circle cx="745" cy="718" r="3.4" fill="#41b6c4"/>
<text class="legend" x="756" y="722">Member of joint four-objective reference front</text>
</svg>
