<svg xmlns="http://www.w3.org/2000/svg" width="1180" height="364" viewBox="0 0 1180 364">
<rect width="100%" height="100%" fill="white"/>
<style><![CDATA[
text{font-family:Arial,Helvetica,sans-serif;fill:#222} .title{font-size:18px;font-weight:700} .axis{stroke:#333;stroke-width:1} .grid{stroke:#e6e6e6;stroke-width:1} .tick{font-size:10px;fill:#555} .label{font-size:12px;fill:#222} .legend{font-size:11px;fill:#222}
]]></style>
<text class="title" x="590.0" y="30" text-anchor="middle">Average Dynamic Reliability under Different DNN Request Numbers</text>
<text class="label" x="280.0" y="73" text-anchor="middle">Service rel.</text>
<line class="grid" x1="128.0" y1="264.0" x2="478.0" y2="264.0"/>
<text class="tick" x="121.0" y="267.0" text-anchor="end">0</text>
<line class="grid" x1="128.0" y1="219.0" x2="478.0" y2="219.0"/>
<text class="tick" x="121.0" y="222.0" text-anchor="end">0.0875</text>
<line class="grid" x1="128.0" y1="174.0" x2="478.0" y2="174.0"/>
<text class="tick" x="121.0" y="177.0" text-anchor="end">0.175</text>
<line class="grid" x1="128.0" y1="129.0" x2="478.0" y2="129.0"/>
<text class="tick" x="121.0" y="132.0" text-anchor="end">0.262</text>
<line class="grid" x1="128.0" y1="84.0" x2="478.0" y2="84.0"/>
<text class="tick" x="121.0" y="87.0" text-anchor="end">0.35</text>
<line class="axis" x1="128.0" y1="264.0" x2="478.0" y2="264.0"/>
<line class="axis" x1="128.0" y1="84.0" x2="128.0" y2="264.0"/>
<line class="axis" x1="128.0" y1="264.0" x2="128.0" y2="268.0"/>
<text class="tick" x="128.0" y="282.0" text-anchor="middle">5</text>
<line class="axis" x1="215.5" y1="264.0" x2="215.5" y2="268.0"/>
<text class="tick" x="215.5" y="282.0" text-anchor="middle">10</text>
<line class="axis" x1="303.0" y1="264.0" x2="303.0" y2="268.0"/>
<text class="tick" x="303.0" y="282.0" text-anchor="middle">20</text>
<line class="axis" x1="390.5" y1="264.0" x2="390.5" y2="268.0"/>
<text class="tick" x="390.5" y="282.0" text-anchor="middle">30</text>
<line class="axis" x1="478.0" y1="264.0" x2="478.0" y2="268.0"/>
<text class="tick" x="478.0" y="282.0" text-anchor="middle">40</text>
<text class="tick" x="82" y="174.0" transform="rotate(-90 82 174.0)" text-anchor="middle">Service rel.</text>
<line x1="128.0" y1="123.7" x2="128.0" y2="165.2" stroke="#1b6ca8" stroke-width="1.0" opacity="0.68"/>
<line x1="123.8" y1="123.7" x2="132.2" y2="123.7" stroke="#1b6ca8" stroke-width="1.0" opacity="0.68"/>
<line x1="123.8" y1="165.2" x2="132.2" y2="165.2" stroke="#1b6ca8" stroke-width="1.0" opacity="0.68"/>
<line x1="215.5" y1="157.8" x2="215.5" y2="191.2" stroke="#1b6ca8" stroke-width="1.0" opacity="0.68"/>
<line x1="211.3" y1="157.8" x2="219.7" y2="157.8" stroke="#1b6ca8" stroke-width="1.0" opacity="0.68"/>
<line x1="211.3" y1="191.2" x2="219.7" y2="191.2" stroke="#1b6ca8" stroke-width="1.0" opacity="0.68"/>
<line x1="303.0" y1="163.7" x2="303.0" y2="192.4" stroke="#1b6ca8" stroke-width="1.0" opacity="0.68"/>
<line x1="298.8" y1="163.7" x2="307.2" y2="163.7" stroke="#1b6ca8" stroke-width="1.0" opacity="0.68"/>
<line x1="298.8" y1="192.4" x2="307.2" y2="192.4" stroke="#1b6ca8" stroke-width="1.0" opacity="0.68"/>
<line x1="390.5" y1="168.1" x2="390.5" y2="184.4" stroke="#1b6ca8" stroke-width="1.0" opacity="0.68"/>
<line x1="386.3" y1="168.1" x2="394.7" y2="168.1" stroke="#1b6ca8" stroke-width="1.0" opacity="0.68"/>
<line x1="386.3" y1="184.4" x2="394.7" y2="184.4" stroke="#1b6ca8" stroke-width="1.0" opacity="0.68"/>
<line x1="478.0" y1="176.9" x2="478.0" y2="190.1" stroke="#1b6ca8" stroke-width="1.0" opacity="0.68"/>
<line x1="473.8" y1="176.9" x2="482.2" y2="176.9" stroke="#1b6ca8" stroke-width="1.0" opacity="0.68"/>
<line x1="473.8" y1="190.1" x2="482.2" y2="190.1" stroke="#1b6ca8" stroke-width="1.0" opacity="0.68"/>
<polygon points="127.6,145.6 215.1,175.6 215.9,173.4 128.4,143.4" fill="#1b6ca8" opacity="0.92"/>
<polygon points="215.5,175.7 303.0,179.2 303.0,176.8 215.5,173.3" fill="#1b6ca8" opacity="0.92"/>
<polygon points="303.0,179.2 390.5,177.5 390.5,175.1 303.0,176.8" fill="#1b6ca8" opacity="0.92"/>
<polygon points="390.4,177.5 477.9,184.7 478.1,182.3 390.6,175.1" fill="#1b6ca8" opacity="0.92"/>
<circle cx="128.0" cy="144.5" r="3.5" fill="#1b6ca8" stroke="white" stroke-width="0.9"/>
<circle cx="215.5" cy="174.5" r="3.5" fill="#1b6ca8" stroke="white" stroke-width="0.9"/>
<circle cx="303.0" cy="178.0" r="3.5" fill="#1b6ca8" stroke="white" stroke-width="0.9"/>
<circle cx="390.5" cy="176.3" r="3.5" fill="#1b6ca8" stroke="white" stroke-width="0.9"/>
<circle cx="478.0" cy="183.5" r="3.5" fill="#1b6ca8" stroke="white" stroke-width="0.9"/>
<line x1="128.0" y1="104.8" x2="128.0" y2="156.6" stroke="#d95f02" stroke-width="1.0" opacity="0.68"/>
<line x1="123.8" y1="104.8" x2="132.2" y2="104.8" stroke="#d95f02" stroke-width="1.0" opacity="0.68"/>
<line x1="123.8" y1="156.6" x2="132.2" y2="156.6" stroke="#d95f02" stroke-width="1.0" opacity="0.68"/>
<line x1="215.5" y1="138.2" x2="215.5" y2="189.5" stroke="#d95f02" stroke-width="1.0" opacity="0.68"/>
<line x1="211.3" y1="138.2" x2="219.7" y2="138.2" stroke="#d95f02" stroke-width="1.0" opacity="0.68"/>
<line x1="211.3" y1="189.5" x2="219.7" y2="189.5" stroke="#d95f02" stroke-width="1.0" opacity="0.68"/>
<line x1="303.0" y1="170.9" x2="303.0" y2="201.7" stroke="#d95f02" stroke-width="1.0" opacity="0.68"/>
<line x1="298.8" y1="170.9" x2="307.2" y2="170.9" stroke="#d95f02" stroke-width="1.0" opacity="0.68"/>
<line x1="298.8" y1="201.7" x2="307.2" y2="201.7" stroke="#d95f02" stroke-width="1.0" opacity="0.68"/>
<line x1="390.5" y1="173.9" x2="390.5" y2="206.0" stroke="#d95f02" stroke-width="1.0" opacity="0.68"/>
<line x1="386.3" y1="173.9" x2="394.7" y2="173.9" stroke="#d95f02" stroke-width="1.0" opacity="0.68"/>
<line x1="386.3" y1="206.0" x2="394.7" y2="206.0" stroke="#d95f02" stroke-width="1.0" opacity="0.68"/>
<line x1="478.0" y1="186.5" x2="478.0" y2="207.4" stroke="#d95f02" stroke-width="1.0" opacity="0.68"/>
<line x1="473.8" y1="186.5" x2="482.2" y2="186.5" stroke="#d95f02" stroke-width="1.0" opacity="0.68"/>
<line x1="473.8" y1="207.4" x2="482.2" y2="207.4" stroke="#d95f02" stroke-width="1.0" opacity="0.68"/>
<polygon points="127.6,131.8 215.1,164.9 215.9,162.7 128.4,129.6" fill="#d95f02" opacity="0.92"/>
<polygon points="215.2,165.0 302.7,187.5 303.3,185.1 215.8,162.6" fill="#d95f02" opacity="0.92"/>
<polygon points="303.0,187.5 390.5,191.1 390.5,188.7 303.0,185.1" fill="#d95f02" opacity="0.92"/>
<polygon points="390.4,191.1 477.9,198.2 478.1,195.8 390.6,188.7" fill="#d95f02" opacity="0.92"/>
<circle cx="128.0" cy="130.7" r="3.5" fill="#d95f02" stroke="white" stroke-width="0.9"/>
<circle cx="215.5" cy="163.8" r="3.5" fill="#d95f02" stroke="white" stroke-width="0.9"/>
<circle cx="303.0" cy="186.3" r="3.5" fill="#d95f02" stroke="white" stroke-width="0.9"/>
<circle cx="390.5" cy="189.9" r="3.5" fill="#d95f02" stroke="white" stroke-width="0.9"/>
<circle cx="478.0" cy="197.0" r="3.5" fill="#d95f02" stroke="white" stroke-width="0.9"/>
<line x1="128.0" y1="98.2" x2="128.0" y2="176.9" stroke="#7570b3" stroke-width="1.0" opacity="0.68"/>
<line x1="123.8" y1="98.2" x2="132.2" y2="98.2" stroke="#7570b3" stroke-width="1.0" opacity="0.68"/>
<line x1="123.8" y1="176.9" x2="132.2" y2="176.9" stroke="#7570b3" stroke-width="1.0" opacity="0.68"/>
<line x1="215.5" y1="136.0" x2="215.5" y2="203.4" stroke="#7570b3" stroke-width="1.0" opacity="0.68"/>
<line x1="211.3" y1="136.0" x2="219.7" y2="136.0" stroke="#7570b3" stroke-width="1.0" opacity="0.68"/>
<line x1="211.3" y1="203.4" x2="219.7" y2="203.4" stroke="#7570b3" stroke-width="1.0" opacity="0.68"/>
<line x1="303.0" y1="132.9" x2="303.0" y2="213.6" stroke="#7570b3" stroke-width="1.0" opacity="0.68"/>
<line x1="298.8" y1="132.9" x2="307.2" y2="132.9" stroke="#7570b3" stroke-width="1.0" opacity="0.68"/>
<line x1="298.8" y1="213.6" x2="307.2" y2="213.6" stroke="#7570b3" stroke-width="1.0" opacity="0.68"/>
<line x1="390.5" y1="140.7" x2="390.5" y2="217.6" stroke="#7570b3" stroke-width="1.0" opacity="0.68"/>
<line x1="386.3" y1="140.7" x2="394.7" y2="140.7" stroke="#7570b3" stroke-width="1.0" opacity="0.68"/>
<line x1="386.3" y1="217.6" x2="394.7" y2="217.6" stroke="#7570b3" stroke-width="1.0" opacity="0.68"/>
<line x1="478.0" y1="151.8" x2="478.0" y2="214.8" stroke="#7570b3" stroke-width="1.0" opacity="0.68"/>
<line x1="473.8" y1="151.8" x2="482.2" y2="151.8" stroke="#7570b3" stroke-width="1.0" opacity="0.68"/>
<line x1="473.8" y1="214.8" x2="482.2" y2="214.8" stroke="#7570b3" stroke-width="1.0" opacity="0.68"/>
<polygon points="127.6,138.6 215.1,170.8 215.9,168.6 128.4,136.4" fill="#7570b3" opacity="0.92"/>
<polygon points="215.5,170.9 303.0,174.5 303.0,172.1 215.5,168.5" fill="#7570b3" opacity="0.92"/>
<polygon points="302.9,174.5 390.4,180.4 390.6,178.0 303.1,172.1" fill="#7570b3" opacity="0.92"/>
<polygon points="390.4,180.4 477.9,184.5 478.1,182.1 390.6,178.0" fill="#7570b3" opacity="0.92"/>
<circle cx="128.0" cy="137.5" r="3.5" fill="#7570b3" stroke="white" stroke-width="0.9"/>
<circle cx="215.5" cy="169.7" r="3.5" fill="#7570b3" stroke="white" stroke-width="0.9"/>
<circle cx="303.0" cy="173.3" r="3.5" fill="#7570b3" stroke="white" stroke-width="0.9"/>
<circle cx="390.5" cy="179.2" r="3.5" fill="#7570b3" stroke="white" stroke-width="0.9"/>
<circle cx="478.0" cy="183.3" r="3.5" fill="#7570b3" stroke="white" stroke-width="0.9"/>
<line x1="128.0" y1="238.7" x2="128.0" y2="258.0" stroke="#666666" stroke-width="1.0" opacity="0.68"/>
<line x1="123.8" y1="238.7" x2="132.2" y2="238.7" stroke="#666666" stroke-width="1.0" opacity="0.68"/>
<line x1="123.8" y1="258.0" x2="132.2" y2="258.0" stroke="#666666" stroke-width="1.0" opacity="0.68"/>
<line x1="215.5" y1="254.5" x2="215.5" y2="260.4" stroke="#666666" stroke-width="1.0" opacity="0.68"/>
<line x1="211.3" y1="254.5" x2="219.7" y2="254.5" stroke="#666666" stroke-width="1.0" opacity="0.68"/>
<line x1="211.3" y1="260.4" x2="219.7" y2="260.4" stroke="#666666" stroke-width="1.0" opacity="0.68"/>
<line x1="303.0" y1="257.9" x2="303.0" y2="263.3" stroke="#666666" stroke-width="1.0" opacity="0.68"/>
<line x1="298.8" y1="257.9" x2="307.2" y2="257.9" stroke="#666666" stroke-width="1.0" opacity="0.68"/>
<line x1="298.8" y1="263.3" x2="307.2" y2="263.3" stroke="#666666" stroke-width="1.0" opacity="0.68"/>
<line x1="390.5" y1="260.9" x2="390.5" y2="263.2" stroke="#666666" stroke-width="1.0" opacity="0.68"/>
<line x1="386.3" y1="260.9" x2="394.7" y2="260.9" stroke="#666666" stroke-width="1.0" opacity="0.68"/>
<line x1="386.3" y1="263.2" x2="394.7" y2="263.2" stroke="#666666" stroke-width="1.0" opacity="0.68"/>
<line x1="478.0" y1="260.5" x2="478.0" y2="263.1" stroke="#666666" stroke-width="1.0" opacity="0.68"/>
<line x1="473.8" y1="260.5" x2="482.2" y2="260.5" stroke="#666666" stroke-width="1.0" opacity="0.68"/>
<line x1="473.8" y1="263.1" x2="482.2" y2="263.1" stroke="#666666" stroke-width="1.0" opacity="0.68"/>
<polygon points="127.9,249.6 215.4,258.7 215.6,256.3 128.1,247.2" fill="#666666" opacity="0.92"/>
<polygon points="215.5,258.7 303.0,261.8 303.0,259.4 215.5,256.3" fill="#666666" opacity="0.92"/>
<polygon points="303.0,261.8 390.5,263.2 390.5,260.8 303.0,259.4" fill="#666666" opacity="0.92"/>
<polygon points="390.5,263.2 478.0,263.0 478.0,260.6 390.5,260.8" fill="#666666" opacity="0.92"/>
<circle cx="128.0" cy="248.4" r="3.5" fill="#666666" stroke="white" stroke-width="0.9"/>
<circle cx="215.5" cy="257.5" r="3.5" fill="#666666" stroke="white" stroke-width="0.9"/>
<circle cx="303.0" cy="260.6" r="3.5" fill="#666666" stroke="white" stroke-width="0.9"/>
<circle cx="390.5" cy="262.0" r="3.5" fill="#666666" stroke="white" stroke-width="0.9"/>
<circle cx="478.0" cy="261.8" r="3.5" fill="#666666" stroke="white" stroke-width="0.9"/>
<line x1="128.0" y1="192.4" x2="128.0" y2="224.0" stroke="#1b9e77" stroke-width="1.0" opacity="0.68"/>
<line x1="123.8" y1="192.4" x2="132.2" y2="192.4" stroke="#1b9e77" stroke-width="1.0" opacity="0.68"/>
<line x1="123.8" y1="224.0" x2="132.2" y2="224.0" stroke="#1b9e77" stroke-width="1.0" opacity="0.68"/>
<line x1="215.5" y1="216.9" x2="215.5" y2="239.4" stroke="#1b9e77" stroke-width="1.0" opacity="0.68"/>
<line x1="211.3" y1="216.9" x2="219.7" y2="216.9" stroke="#1b9e77" stroke-width="1.0" opacity="0.68"/>
<line x1="211.3" y1="239.4" x2="219.7" y2="239.4" stroke="#1b9e77" stroke-width="1.0" opacity="0.68"/>
<line x1="303.0" y1="228.5" x2="303.0" y2="246.3" stroke="#1b9e77" stroke-width="1.0" opacity="0.68"/>
<line x1="298.8" y1="228.5" x2="307.2" y2="228.5" stroke="#1b9e77" stroke-width="1.0" opacity="0.68"/>
<line x1="298.8" y1="246.3" x2="307.2" y2="246.3" stroke="#1b9e77" stroke-width="1.0" opacity="0.68"/>
<line x1="390.5" y1="222.5" x2="390.5" y2="249.1" stroke="#1b9e77" stroke-width="1.0" opacity="0.68"/>
<line x1="386.3" y1="222.5" x2="394.7" y2="222.5" stroke="#1b9e77" stroke-width="1.0" opacity="0.68"/>
<line x1="386.3" y1="249.1" x2="394.7" y2="249.1" stroke="#1b9e77" stroke-width="1.0" opacity="0.68"/>
<line x1="478.0" y1="224.9" x2="478.0" y2="245.4" stroke="#1b9e77" stroke-width="1.0" opacity="0.68"/>
<line x1="473.8" y1="224.9" x2="482.2" y2="224.9" stroke="#1b9e77" stroke-width="1.0" opacity="0.68"/>
<line x1="473.8" y1="245.4" x2="482.2" y2="245.4" stroke="#1b9e77" stroke-width="1.0" opacity="0.68"/>
<polygon points="127.7,209.4 215.2,229.3 215.8,226.9 128.3,207.0" fill="#1b9e77" opacity="0.92"/>
<polygon points="215.4,229.3 302.9,238.6 303.1,236.2 215.6,226.9" fill="#1b9e77" opacity="0.92"/>
<polygon points="303.0,238.6 390.5,237.0 390.5,234.6 303.0,236.2" fill="#1b9e77" opacity="0.92"/>
<polygon points="390.5,237.0 478.0,236.4 478.0,234.0 390.5,234.6" fill="#1b9e77" opacity="0.92"/>
<circle cx="128.0" cy="208.2" r="3.5" fill="#1b9e77" stroke="white" stroke-width="0.9"/>
<circle cx="215.5" cy="228.1" r="3.5" fill="#1b9e77" stroke="white" stroke-width="0.9"/>
<circle cx="303.0" cy="237.4" r="3.5" fill="#1b9e77" stroke="white" stroke-width="0.9"/>
<circle cx="390.5" cy="235.8" r="3.5" fill="#1b9e77" stroke="white" stroke-width="0.9"/>
<circle cx="478.0" cy="235.2" r="3.5" fill="#1b9e77" stroke="white" stroke-width="0.9"/>
<line x1="128.0" y1="145.3" x2="128.0" y2="187.5" stroke="#e7298a" stroke-width="1.0" opacity="0.68"/>
<line x1="123.8" y1="145.3" x2="132.2" y2="145.3" stroke="#e7298a" stroke-width="1.0" opacity="0.68"/>
<line x1="123.8" y1="187.5" x2="132.2" y2="187.5" stroke="#e7298a" stroke-width="1.0" opacity="0.68"/>
<line x1="215.5" y1="156.4" x2="215.5" y2="198.2" stroke="#e7298a" stroke-width="1.0" opacity="0.68"/>
<line x1="211.3" y1="156.4" x2="219.7" y2="156.4" stroke="#e7298a" stroke-width="1.0" opacity="0.68"/>
<line x1="211.3" y1="198.2" x2="219.7" y2="198.2" stroke="#e7298a" stroke-width="1.0" opacity="0.68"/>
<line x1="303.0" y1="173.2" x2="303.0" y2="200.5" stroke="#e7298a" stroke-width="1.0" opacity="0.68"/>
<line x1="298.8" y1="173.2" x2="307.2" y2="173.2" stroke="#e7298a" stroke-width="1.0" opacity="0.68"/>
<line x1="298.8" y1="200.5" x2="307.2" y2="200.5" stroke="#e7298a" stroke-width="1.0" opacity="0.68"/>
<line x1="390.5" y1="179.4" x2="390.5" y2="205.4" stroke="#e7298a" stroke-width="1.0" opacity="0.68"/>
<line x1="386.3" y1="179.4" x2="394.7" y2="179.4" stroke="#e7298a" stroke-width="1.0" opacity="0.68"/>
<line x1="386.3" y1="205.4" x2="394.7" y2="205.4" stroke="#e7298a" stroke-width="1.0" opacity="0.68"/>
<line x1="478.0" y1="184.7" x2="478.0" y2="206.5" stroke="#e7298a" stroke-width="1.0" opacity="0.68"/>
<line x1="473.8" y1="184.7" x2="482.2" y2="184.7" stroke="#e7298a" stroke-width="1.0" opacity="0.68"/>
<line x1="473.8" y1="206.5" x2="482.2" y2="206.5" stroke="#e7298a" stroke-width="1.0" opacity="0.68"/>
<polygon points="127.9,167.6 215.4,178.5 215.6,176.1 128.1,165.2" fill="#e7298a" opacity="0.92"/>
<polygon points="215.4,178.5 302.9,188.1 303.1,185.7 215.6,176.1" fill="#e7298a" opacity="0.92"/>
<polygon points="302.9,188.1 390.4,193.6 390.6,191.2 303.1,185.7" fill="#e7298a" opacity="0.92"/>
<polygon points="390.5,193.6 478.0,196.8 478.0,194.4 390.5,191.2" fill="#e7298a" opacity="0.92"/>
<circle cx="128.0" cy="166.4" r="3.5" fill="#e7298a" stroke="white" stroke-width="0.9"/>
<circle cx="215.5" cy="177.3" r="3.5" fill="#e7298a" stroke="white" stroke-width="0.9"/>
<circle cx="303.0" cy="186.9" r="3.5" fill="#e7298a" stroke="white" stroke-width="0.9"/>
<circle cx="390.5" cy="192.4" r="3.5" fill="#e7298a" stroke="white" stroke-width="0.9"/>
<circle cx="478.0" cy="195.6" r="3.5" fill="#e7298a" stroke="white" stroke-width="0.9"/>
<text class="label" x="750.0" y="73" text-anchor="middle">Accuracy rel.</text>
<line class="grid" x1="598.0" y1="264.0" x2="948.0" y2="264.0"/>
<text class="tick" x="591.0" y="267.0" text-anchor="end">0.5</text>
<line class="grid" x1="598.0" y1="219.0" x2="948.0" y2="219.0"/>
<text class="tick" x="591.0" y="222.0" text-anchor="end">0.625</text>
<line class="grid" x1="598.0" y1="174.0" x2="948.0" y2="174.0"/>
<text class="tick" x="591.0" y="177.0" text-anchor="end">0.75</text>
<line class="grid" x1="598.0" y1="129.0" x2="948.0" y2="129.0"/>
<text class="tick" x="591.0" y="132.0" text-anchor="end">0.875</text>
<line class="grid" x1="598.0" y1="84.0" x2="948.0" y2="84.0"/>
<text class="tick" x="591.0" y="87.0" text-anchor="end">1</text>
<line class="axis" x1="598.0" y1="264.0" x2="948.0" y2="264.0"/>
<line class="axis" x1="598.0" y1="84.0" x2="598.0" y2="264.0"/>
<line class="axis" x1="598.0" y1="264.0" x2="598.0" y2="268.0"/>
<text class="tick" x="598.0" y="282.0" text-anchor="middle">5</text>
<line class="axis" x1="685.5" y1="264.0" x2="685.5" y2="268.0"/>
<text class="tick" x="685.5" y="282.0" text-anchor="middle">10</text>
<line class="axis" x1="773.0" y1="264.0" x2="773.0" y2="268.0"/>
<text class="tick" x="773.0" y="282.0" text-anchor="middle">20</text>
<line class="axis" x1="860.5" y1="264.0" x2="860.5" y2="268.0"/>
<text class="tick" x="860.5" y="282.0" text-anchor="middle">30</text>
<line class="axis" x1="948.0" y1="264.0" x2="948.0" y2="268.0"/>
<text class="tick" x="948.0" y="282.0" text-anchor="middle">40</text>
<text class="tick" x="552" y="174.0" transform="rotate(-90 552 174.0)" text-anchor="middle">Accuracy rel.</text>
<line x1="598.0" y1="122.7" x2="598.0" y2="158.4" stroke="#1b6ca8" stroke-width="1.0" opacity="0.68"/>
<line x1="593.8" y1="122.7" x2="602.2" y2="122.7" stroke="#1b6ca8" stroke-width="1.0" opacity="0.68"/>
<line x1="593.8" y1="158.4" x2="602.2" y2="158.4" stroke="#1b6ca8" stroke-width="1.0" opacity="0.68"/>
<line x1="685.5" y1="154.0" x2="685.5" y2="176.7" stroke="#1b6ca8" stroke-width="1.0" opacity="0.68"/>
<line x1="681.3" y1="154.0" x2="689.7" y2="154.0" stroke="#1b6ca8" stroke-width="1.0" opacity="0.68"/>
<line x1="681.3" y1="176.7" x2="689.7" y2="176.7" stroke="#1b6ca8" stroke-width="1.0" opacity="0.68"/>
<line x1="773.0" y1="162.7" x2="773.0" y2="180.4" stroke="#1b6ca8" stroke-width="1.0" opacity="0.68"/>
<line x1="768.8" y1="162.7" x2="777.2" y2="162.7" stroke="#1b6ca8" stroke-width="1.0" opacity="0.68"/>
<line x1="768.8" y1="180.4" x2="777.2" y2="180.4" stroke="#1b6ca8" stroke-width="1.0" opacity="0.68"/>
<line x1="860.5" y1="163.5" x2="860.5" y2="185.1" stroke="#1b6ca8" stroke-width="1.0" opacity="0.68"/>
<line x1="856.3" y1="163.5" x2="864.7" y2="163.5" stroke="#1b6ca8" stroke-width="1.0" opacity="0.68"/>
<line x1="856.3" y1="185.1" x2="864.7" y2="185.1" stroke="#1b6ca8" stroke-width="1.0" opacity="0.68"/>
<line x1="948.0" y1="167.7" x2="948.0" y2="187.3" stroke="#1b6ca8" stroke-width="1.0" opacity="0.68"/>
<line x1="943.8" y1="167.7" x2="952.2" y2="167.7" stroke="#1b6ca8" stroke-width="1.0" opacity="0.68"/>
<line x1="943.8" y1="187.3" x2="952.2" y2="187.3" stroke="#1b6ca8" stroke-width="1.0" opacity="0.68"/>
<polygon points="597.7,141.8 685.2,166.6 685.8,164.2 598.3,139.4" fill="#1b6ca8" opacity="0.92"/>
<polygon points="685.4,166.6 772.9,172.7 773.1,170.3 685.6,164.2" fill="#1b6ca8" opacity="0.92"/>
<polygon points="773.0,172.7 860.5,175.5 860.5,173.1 773.0,170.3" fill="#1b6ca8" opacity="0.92"/>
<polygon points="860.5,175.5 948.0,178.7 948.0,176.3 860.5,173.1" fill="#1b6ca8" opacity="0.92"/>
<circle cx="598.0" cy="140.6" r="3.5" fill="#1b6ca8" stroke="white" stroke-width="0.9"/>
<circle cx="685.5" cy="165.4" r="3.5" fill="#1b6ca8" stroke="white" stroke-width="0.9"/>
<circle cx="773.0" cy="171.5" r="3.5" fill="#1b6ca8" stroke="white" stroke-width="0.9"/>
<circle cx="860.5" cy="174.3" r="3.5" fill="#1b6ca8" stroke="white" stroke-width="0.9"/>
<circle cx="948.0" cy="177.5" r="3.5" fill="#1b6ca8" stroke="white" stroke-width="0.9"/>
<line x1="598.0" y1="98.8" x2="598.0" y2="122.0" stroke="#d95f02" stroke-width="1.0" opacity="0.68"/>
<line x1="593.8" y1="98.8" x2="602.2" y2="98.8" stroke="#d95f02" stroke-width="1.0" opacity="0.68"/>
<line x1="593.8" y1="122.0" x2="602.2" y2="122.0" stroke="#d95f02" stroke-width="1.0" opacity="0.68"/>
<line x1="685.5" y1="119.8" x2="685.5" y2="162.0" stroke="#d95f02" stroke-width="1.0" opacity="0.68"/>
<line x1="681.3" y1="119.8" x2="689.7" y2="119.8" stroke="#d95f02" stroke-width="1.0" opacity="0.68"/>
<line x1="681.3" y1="162.0" x2="689.7" y2="162.0" stroke="#d95f02" stroke-width="1.0" opacity="0.68"/>
<line x1="773.0" y1="141.3" x2="773.0" y2="164.5" stroke="#d95f02" stroke-width="1.0" opacity="0.68"/>
<line x1="768.8" y1="141.3" x2="777.2" y2="141.3" stroke="#d95f02" stroke-width="1.0" opacity="0.68"/>
<line x1="768.8" y1="164.5" x2="777.2" y2="164.5" stroke="#d95f02" stroke-width="1.0" opacity="0.68"/>
<line x1="860.5" y1="151.9" x2="860.5" y2="177.4" stroke="#d95f02" stroke-width="1.0" opacity="0.68"/>
<line x1="856.3" y1="151.9" x2="864.7" y2="151.9" stroke="#d95f02" stroke-width="1.0" opacity="0.68"/>
<line x1="856.3" y1="177.4" x2="864.7" y2="177.4" stroke="#d95f02" stroke-width="1.0" opacity="0.68"/>
<line x1="948.0" y1="153.9" x2="948.0" y2="175.6" stroke="#d95f02" stroke-width="1.0" opacity="0.68"/>
<line x1="943.8" y1="153.9" x2="952.2" y2="153.9" stroke="#d95f02" stroke-width="1.0" opacity="0.68"/>
<line x1="943.8" y1="175.6" x2="952.2" y2="175.6" stroke="#d95f02" stroke-width="1.0" opacity="0.68"/>
<polygon points="597.6,111.5 685.1,142.0 685.9,139.8 598.4,109.3" fill="#d95f02" opacity="0.92"/>
<polygon points="685.3,142.1 772.8,154.1 773.2,151.7 685.7,139.7" fill="#d95f02" opacity="0.92"/>
<polygon points="772.8,154.1 860.3,165.9 860.7,163.5 773.2,151.7" fill="#d95f02" opacity="0.92"/>
<polygon points="860.5,165.9 948.0,166.0 948.0,163.6 860.5,163.5" fill="#d95f02" opacity="0.92"/>
<circle cx="598.0" cy="110.4" r="3.5" fill="#d95f02" stroke="white" stroke-width="0.9"/>
<circle cx="685.5" cy="140.9" r="3.5" fill="#d95f02" stroke="white" stroke-width="0.9"/>
<circle cx="773.0" cy="152.9" r="3.5" fill="#d95f02" stroke="white" stroke-width="0.9"/>
<circle cx="860.5" cy="164.7" r="3.5" fill="#d95f02" stroke="white" stroke-width="0.9"/>
<circle cx="948.0" cy="164.8" r="3.5" fill="#d95f02" stroke="white" stroke-width="0.9"/>
<line x1="598.0" y1="146.5" x2="598.0" y2="212.9" stroke="#7570b3" stroke-width="1.0" opacity="0.68"/>
<line x1="593.8" y1="146.5" x2="602.2" y2="146.5" stroke="#7570b3" stroke-width="1.0" opacity="0.68"/>
<line x1="593.8" y1="212.9" x2="602.2" y2="212.9" stroke="#7570b3" stroke-width="1.0" opacity="0.68"/>
<line x1="685.5" y1="187.2" x2="685.5" y2="212.7" stroke="#7570b3" stroke-width="1.0" opacity="0.68"/>
<line x1="681.3" y1="187.2" x2="689.7" y2="187.2" stroke="#7570b3" stroke-width="1.0" opacity="0.68"/>
<line x1="681.3" y1="212.7" x2="689.7" y2="212.7" stroke="#7570b3" stroke-width="1.0" opacity="0.68"/>
<line x1="773.0" y1="175.3" x2="773.0" y2="232.6" stroke="#7570b3" stroke-width="1.0" opacity="0.68"/>
<line x1="768.8" y1="175.3" x2="777.2" y2="175.3" stroke="#7570b3" stroke-width="1.0" opacity="0.68"/>
<line x1="768.8" y1="232.6" x2="777.2" y2="232.6" stroke="#7570b3" stroke-width="1.0" opacity="0.68"/>
<line x1="860.5" y1="189.2" x2="860.5" y2="240.1" stroke="#7570b3" stroke-width="1.0" opacity="0.68"/>
<line x1="856.3" y1="189.2" x2="864.7" y2="189.2" stroke="#7570b3" stroke-width="1.0" opacity="0.68"/>
<line x1="856.3" y1="240.1" x2="864.7" y2="240.1" stroke="#7570b3" stroke-width="1.0" opacity="0.68"/>
<line x1="948.0" y1="192.6" x2="948.0" y2="241.6" stroke="#7570b3" stroke-width="1.0" opacity="0.68"/>
<line x1="943.8" y1="192.6" x2="952.2" y2="192.6" stroke="#7570b3" stroke-width="1.0" opacity="0.68"/>
<line x1="943.8" y1="241.6" x2="952.2" y2="241.6" stroke="#7570b3" stroke-width="1.0" opacity="0.68"/>
<polygon points="597.7,180.9 685.2,201.2 685.8,198.8 598.3,178.5" fill="#7570b3" opacity="0.92"/>
<polygon points="685.4,201.2 772.9,205.1 773.1,202.7 685.6,198.8" fill="#7570b3" opacity="0.92"/>
<polygon points="772.9,205.1 860.4,215.9 860.6,213.5 773.1,202.7" fill="#7570b3" opacity="0.92"/>
<polygon points="860.5,215.9 948.0,218.3 948.0,215.9 860.5,213.5" fill="#7570b3" opacity="0.92"/>
<circle cx="598.0" cy="179.7" r="3.5" fill="#7570b3" stroke="white" stroke-width="0.9"/>
<circle cx="685.5" cy="200.0" r="3.5" fill="#7570b3" stroke="white" stroke-width="0.9"/>
<circle cx="773.0" cy="203.9" r="3.5" fill="#7570b3" stroke="white" stroke-width="0.9"/>
<circle cx="860.5" cy="214.7" r="3.5" fill="#7570b3" stroke="white" stroke-width="0.9"/>
<circle cx="948.0" cy="217.1" r="3.5" fill="#7570b3" stroke="white" stroke-width="0.9"/>
<line x1="598.0" y1="139.7" x2="598.0" y2="148.1" stroke="#666666" stroke-width="1.0" opacity="0.68"/>
<line x1="593.8" y1="139.7" x2="602.2" y2="139.7" stroke="#666666" stroke-width="1.0" opacity="0.68"/>
<line x1="593.8" y1="148.1" x2="602.2" y2="148.1" stroke="#666666" stroke-width="1.0" opacity="0.68"/>
<line x1="685.5" y1="161.6" x2="685.5" y2="184.2" stroke="#666666" stroke-width="1.0" opacity="0.68"/>
<line x1="681.3" y1="161.6" x2="689.7" y2="161.6" stroke="#666666" stroke-width="1.0" opacity="0.68"/>
<line x1="681.3" y1="184.2" x2="689.7" y2="184.2" stroke="#666666" stroke-width="1.0" opacity="0.68"/>
<line x1="773.0" y1="192.6" x2="773.0" y2="202.7" stroke="#666666" stroke-width="1.0" opacity="0.68"/>
<line x1="768.8" y1="192.6" x2="777.2" y2="192.6" stroke="#666666" stroke-width="1.0" opacity="0.68"/>
<line x1="768.8" y1="202.7" x2="777.2" y2="202.7" stroke="#666666" stroke-width="1.0" opacity="0.68"/>
<line x1="860.5" y1="198.4" x2="860.5" y2="207.3" stroke="#666666" stroke-width="1.0" opacity="0.68"/>
<line x1="856.3" y1="198.4" x2="864.7" y2="198.4" stroke="#666666" stroke-width="1.0" opacity="0.68"/>
<line x1="856.3" y1="207.3" x2="864.7" y2="207.3" stroke="#666666" stroke-width="1.0" opacity="0.68"/>
<line x1="948.0" y1="199.4" x2="948.0" y2="210.4" stroke="#666666" stroke-width="1.0" opacity="0.68"/>
<line x1="943.8" y1="199.4" x2="952.2" y2="199.4" stroke="#666666" stroke-width="1.0" opacity="0.68"/>
<line x1="943.8" y1="210.4" x2="952.2" y2="210.4" stroke="#666666" stroke-width="1.0" opacity="0.68"/>
<polygon points="597.6,145.0 685.1,174.0 685.9,171.8 598.4,142.8" fill="#666666" opacity="0.92"/>
<polygon points="685.2,174.1 772.7,198.8 773.3,196.4 685.8,171.7" fill="#666666" opacity="0.92"/>
<polygon points="772.9,198.8 860.4,204.1 860.6,201.7 773.1,196.4" fill="#666666" opacity="0.92"/>
<polygon points="860.5,204.1 948.0,206.1 948.0,203.7 860.5,201.7" fill="#666666" opacity="0.92"/>
<circle cx="598.0" cy="143.9" r="3.5" fill="#666666" stroke="white" stroke-width="0.9"/>
<circle cx="685.5" cy="172.9" r="3.5" fill="#666666" stroke="white" stroke-width="0.9"/>
<circle cx="773.0" cy="197.6" r="3.5" fill="#666666" stroke="white" stroke-width="0.9"/>
<circle cx="860.5" cy="202.9" r="3.5" fill="#666666" stroke="white" stroke-width="0.9"/>
<circle cx="948.0" cy="204.9" r="3.5" fill="#666666" stroke="white" stroke-width="0.9"/>
<line x1="598.0" y1="168.8" x2="598.0" y2="181.2" stroke="#1b9e77" stroke-width="1.0" opacity="0.68"/>
<line x1="593.8" y1="168.8" x2="602.2" y2="168.8" stroke="#1b9e77" stroke-width="1.0" opacity="0.68"/>
<line x1="593.8" y1="181.2" x2="602.2" y2="181.2" stroke="#1b9e77" stroke-width="1.0" opacity="0.68"/>
<line x1="685.5" y1="187.7" x2="685.5" y2="200.4" stroke="#1b9e77" stroke-width="1.0" opacity="0.68"/>
<line x1="681.3" y1="187.7" x2="689.7" y2="187.7" stroke="#1b9e77" stroke-width="1.0" opacity="0.68"/>
<line x1="681.3" y1="200.4" x2="689.7" y2="200.4" stroke="#1b9e77" stroke-width="1.0" opacity="0.68"/>
<line x1="773.0" y1="204.0" x2="773.0" y2="210.0" stroke="#1b9e77" stroke-width="1.0" opacity="0.68"/>
<line x1="768.8" y1="204.0" x2="777.2" y2="204.0" stroke="#1b9e77" stroke-width="1.0" opacity="0.68"/>
<line x1="768.8" y1="210.0" x2="777.2" y2="210.0" stroke="#1b9e77" stroke-width="1.0" opacity="0.68"/>
<line x1="860.5" y1="207.1" x2="860.5" y2="214.1" stroke="#1b9e77" stroke-width="1.0" opacity="0.68"/>
<line x1="856.3" y1="207.1" x2="864.7" y2="207.1" stroke="#1b9e77" stroke-width="1.0" opacity="0.68"/>
<line x1="856.3" y1="214.1" x2="864.7" y2="214.1" stroke="#1b9e77" stroke-width="1.0" opacity="0.68"/>
<line x1="948.0" y1="208.9" x2="948.0" y2="217.4" stroke="#1b9e77" stroke-width="1.0" opacity="0.68"/>
<line x1="943.8" y1="208.9" x2="952.2" y2="208.9" stroke="#1b9e77" stroke-width="1.0" opacity="0.68"/>
<line x1="943.8" y1="217.4" x2="952.2" y2="217.4" stroke="#1b9e77" stroke-width="1.0" opacity="0.68"/>
<polygon points="597.7,176.2 685.2,195.3 685.8,192.9 598.3,173.8" fill="#1b9e77" opacity="0.92"/>
<polygon points="685.3,195.3 772.8,208.2 773.2,205.8 685.7,192.9" fill="#1b9e77" opacity="0.92"/>
<polygon points="773.0,208.2 860.5,211.8 860.5,209.4 773.0,205.8" fill="#1b9e77" opacity="0.92"/>
<polygon points="860.5,211.8 948.0,214.3 948.0,211.9 860.5,209.4" fill="#1b9e77" opacity="0.92"/>
<circle cx="598.0" cy="175.0" r="3.5" fill="#1b9e77" stroke="white" stroke-width="0.9"/>
<circle cx="685.5" cy="194.1" r="3.5" fill="#1b9e77" stroke="white" stroke-width="0.9"/>
<circle cx="773.0" cy="207.0" r="3.5" fill="#1b9e77" stroke="white" stroke-width="0.9"/>
<circle cx="860.5" cy="210.6" r="3.5" fill="#1b9e77" stroke="white" stroke-width="0.9"/>
<circle cx="948.0" cy="213.1" r="3.5" fill="#1b9e77" stroke="white" stroke-width="0.9"/>
<line x1="598.0" y1="211.5" x2="598.0" y2="230.4" stroke="#e7298a" stroke-width="1.0" opacity="0.68"/>
<line x1="593.8" y1="211.5" x2="602.2" y2="211.5" stroke="#e7298a" stroke-width="1.0" opacity="0.68"/>
<line x1="593.8" y1="230.4" x2="602.2" y2="230.4" stroke="#e7298a" stroke-width="1.0" opacity="0.68"/>
<line x1="685.5" y1="219.0" x2="685.5" y2="233.2" stroke="#e7298a" stroke-width="1.0" opacity="0.68"/>
<line x1="681.3" y1="219.0" x2="689.7" y2="219.0" stroke="#e7298a" stroke-width="1.0" opacity="0.68"/>
<line x1="681.3" y1="233.2" x2="689.7" y2="233.2" stroke="#e7298a" stroke-width="1.0" opacity="0.68"/>
<line x1="773.0" y1="224.9" x2="773.0" y2="235.9" stroke="#e7298a" stroke-width="1.0" opacity="0.68"/>
<line x1="768.8" y1="224.9" x2="777.2" y2="224.9" stroke="#e7298a" stroke-width="1.0" opacity="0.68"/>
<line x1="768.8" y1="235.9" x2="777.2" y2="235.9" stroke="#e7298a" stroke-width="1.0" opacity="0.68"/>
<line x1="860.5" y1="228.7" x2="860.5" y2="237.4" stroke="#e7298a" stroke-width="1.0" opacity="0.68"/>
<line x1="856.3" y1="228.7" x2="864.7" y2="228.7" stroke="#e7298a" stroke-width="1.0" opacity="0.68"/>
<line x1="856.3" y1="237.4" x2="864.7" y2="237.4" stroke="#e7298a" stroke-width="1.0" opacity="0.68"/>
<line x1="948.0" y1="231.2" x2="948.0" y2="238.3" stroke="#e7298a" stroke-width="1.0" opacity="0.68"/>
<line x1="943.8" y1="231.2" x2="952.2" y2="231.2" stroke="#e7298a" stroke-width="1.0" opacity="0.68"/>
<line x1="943.8" y1="238.3" x2="952.2" y2="238.3" stroke="#e7298a" stroke-width="1.0" opacity="0.68"/>
<polygon points="597.9,222.2 685.4,227.3 685.6,224.9 598.1,219.8" fill="#e7298a" opacity="0.92"/>
<polygon points="685.4,227.3 772.9,231.6 773.1,229.2 685.6,224.9" fill="#e7298a" opacity="0.92"/>
<polygon points="773.0,231.6 860.5,234.3 860.5,231.9 773.0,229.2" fill="#e7298a" opacity="0.92"/>
<polygon points="860.5,234.3 948.0,235.9 948.0,233.5 860.5,231.9" fill="#e7298a" opacity="0.92"/>
<circle cx="598.0" cy="221.0" r="3.5" fill="#e7298a" stroke="white" stroke-width="0.9"/>
<circle cx="685.5" cy="226.1" r="3.5" fill="#e7298a" stroke="white" stroke-width="0.9"/>
<circle cx="773.0" cy="230.4" r="3.5" fill="#e7298a" stroke="white" stroke-width="0.9"/>
<circle cx="860.5" cy="233.1" r="3.5" fill="#e7298a" stroke="white" stroke-width="0.9"/>
<circle cx="948.0" cy="234.7" r="3.5" fill="#e7298a" stroke="white" stroke-width="0.9"/>
<line x1="1010" y1="78" x2="1026" y2="78" stroke="#1b6ca8" stroke-width="2.4"/>
<circle cx="1018" cy="78" r="3.2" fill="#1b6ca8"/>
<text class="legend" x="1033" y="82">DAREED</text>
<line x1="1010" y1="96" x2="1026" y2="96" stroke="#d95f02" stroke-width="2.4"/>
<circle cx="1018" cy="96" r="3.2" fill="#d95f02"/>
<text class="legend" x="1033" y="100">NSGA-ED</text>
<line x1="1010" y1="114" x2="1026" y2="114" stroke="#7570b3" stroke-width="2.4"/>
<circle cx="1018" cy="114" r="3.2" fill="#7570b3"/>
<text class="legend" x="1033" y="118">RTBL</text>
<line x1="1010" y1="132" x2="1026" y2="132" stroke="#666666" stroke-width="2.4"/>
<circle cx="1018" cy="132" r="3.2" fill="#666666"/>
<text class="legend" x="1033" y="136">RDA</text>
<line x1="1010" y1="150" x2="1026" y2="150" stroke="#1b9e77" stroke-width="2.4"/>
<circle cx="1018" cy="150" r="3.2" fill="#1b9e77"/>
<text class="legend" x="1033" y="154">MRD</text>
<line x1="1010" y1="168" x2="1026" y2="168" stroke="#e7298a" stroke-width="2.4"/>
<circle cx="1018" cy="168" r="3.2" fill="#e7298a"/>
<text class="legend" x="1033" y="172">LPD</text>
</svg>
