<svg xmlns="http://www.w3.org/2000/svg" width="1180" height="956" viewBox="0 0 1180 956">
<rect width="100%" height="100%" fill="white"/>
<style><![CDATA[
text{font-family:Arial,Helvetica,sans-serif;fill:#222} .title{font-size:18px;font-weight:700} .axis{stroke:#333;stroke-width:1} .grid{stroke:#e6e6e6;stroke-width:1} .tick{font-size:10px;fill:#555} .label{font-size:12px;fill:#222} .legend{font-size:11px;fill:#222}
]]></style>
<text class="title" x="590.0" y="30" text-anchor="middle">Sensitivity under Different Population Sizes</text>
<text class="label" x="280.0" y="73" text-anchor="middle">Service rel.</text>
<line class="grid" x1="128.0" y1="264.0" x2="478.0" y2="264.0"/>
<text class="tick" x="121.0" y="267.0" text-anchor="end">0.05</text>
<line class="grid" x1="128.0" y1="219.0" x2="478.0" y2="219.0"/>
<text class="tick" x="121.0" y="222.0" text-anchor="end">0.1</text>
<line class="grid" x1="128.0" y1="174.0" x2="478.0" y2="174.0"/>
<text class="tick" x="121.0" y="177.0" text-anchor="end">0.15</text>
<line class="grid" x1="128.0" y1="129.0" x2="478.0" y2="129.0"/>
<text class="tick" x="121.0" y="132.0" text-anchor="end">0.2</text>
<line class="grid" x1="128.0" y1="84.0" x2="478.0" y2="84.0"/>
<text class="tick" x="121.0" y="87.0" text-anchor="end">0.25</text>
<line class="axis" x1="128.0" y1="264.0" x2="478.0" y2="264.0"/>
<line class="axis" x1="128.0" y1="84.0" x2="128.0" y2="264.0"/>
<line class="axis" x1="128.0" y1="264.0" x2="128.0" y2="268.0"/>
<text class="tick" x="128.0" y="282.0" text-anchor="middle">20</text>
<line class="axis" x1="215.5" y1="264.0" x2="215.5" y2="268.0"/>
<text class="tick" x="215.5" y="282.0" text-anchor="middle">40</text>
<line class="axis" x1="303.0" y1="264.0" x2="303.0" y2="268.0"/>
<text class="tick" x="303.0" y="282.0" text-anchor="middle">60</text>
<line class="axis" x1="390.5" y1="264.0" x2="390.5" y2="268.0"/>
<text class="tick" x="390.5" y="282.0" text-anchor="middle">80</text>
<line class="axis" x1="478.0" y1="264.0" x2="478.0" y2="268.0"/>
<text class="tick" x="478.0" y="282.0" text-anchor="middle">100</text>
<text class="tick" x="82" y="174.0" transform="rotate(-90 82 174.0)" text-anchor="middle">Service rel.</text>
<line x1="128.0" y1="170.0" x2="128.0" y2="209.0" stroke="#1b6ca8" stroke-width="1.0" opacity="0.68"/>
<line x1="122.5" y1="170.0" x2="133.5" y2="170.0" stroke="#1b6ca8" stroke-width="1.0" opacity="0.68"/>
<line x1="122.5" y1="209.0" x2="133.5" y2="209.0" stroke="#1b6ca8" stroke-width="1.0" opacity="0.68"/>
<line x1="215.5" y1="154.8" x2="215.5" y2="180.4" stroke="#1b6ca8" stroke-width="1.0" opacity="0.68"/>
<line x1="210.0" y1="154.8" x2="221.0" y2="154.8" stroke="#1b6ca8" stroke-width="1.0" opacity="0.68"/>
<line x1="210.0" y1="180.4" x2="221.0" y2="180.4" stroke="#1b6ca8" stroke-width="1.0" opacity="0.68"/>
<line x1="303.0" y1="141.2" x2="303.0" y2="169.7" stroke="#1b6ca8" stroke-width="1.0" opacity="0.68"/>
<line x1="297.5" y1="141.2" x2="308.5" y2="141.2" stroke="#1b6ca8" stroke-width="1.0" opacity="0.68"/>
<line x1="297.5" y1="169.7" x2="308.5" y2="169.7" stroke="#1b6ca8" stroke-width="1.0" opacity="0.68"/>
<line x1="390.5" y1="129.6" x2="390.5" y2="184.2" stroke="#1b6ca8" stroke-width="1.0" opacity="0.68"/>
<line x1="385.0" y1="129.6" x2="396.0" y2="129.6" stroke="#1b6ca8" stroke-width="1.0" opacity="0.68"/>
<line x1="385.0" y1="184.2" x2="396.0" y2="184.2" stroke="#1b6ca8" stroke-width="1.0" opacity="0.68"/>
<line x1="478.0" y1="133.8" x2="478.0" y2="161.7" stroke="#1b6ca8" stroke-width="1.0" opacity="0.68"/>
<line x1="472.5" y1="133.8" x2="483.5" y2="133.8" stroke="#1b6ca8" stroke-width="1.0" opacity="0.68"/>
<line x1="472.5" y1="161.7" x2="483.5" y2="161.7" stroke="#1b6ca8" stroke-width="1.0" opacity="0.68"/>
<polygon points="128.3,190.7 215.8,168.8 215.2,166.4 127.7,188.3" fill="#1b6ca8" opacity="0.92"/>
<polygon points="215.7,168.8 303.2,156.7 302.8,154.3 215.3,166.4" fill="#1b6ca8" opacity="0.92"/>
<polygon points="303.0,156.7 390.5,158.1 390.5,155.7 303.0,154.3" fill="#1b6ca8" opacity="0.92"/>
<polygon points="390.6,158.1 478.1,149.0 477.9,146.6 390.4,155.7" fill="#1b6ca8" opacity="0.92"/>
<circle cx="128.0" cy="189.5" r="3.5" fill="#1b6ca8" stroke="white" stroke-width="0.9"/>
<circle cx="215.5" cy="167.6" r="3.5" fill="#1b6ca8" stroke="white" stroke-width="0.9"/>
<circle cx="303.0" cy="155.5" r="3.5" fill="#1b6ca8" stroke="white" stroke-width="0.9"/>
<circle cx="390.5" cy="156.9" r="3.5" fill="#1b6ca8" stroke="white" stroke-width="0.9"/>
<circle cx="478.0" cy="147.8" r="3.5" fill="#1b6ca8" stroke="white" stroke-width="0.9"/>
<text class="label" x="750.0" y="73" text-anchor="middle">Accuracy rel.</text>
<line class="grid" x1="598.0" y1="264.0" x2="948.0" y2="264.0"/>
<text class="tick" x="591.0" y="267.0" text-anchor="end">0.65</text>
<line class="grid" x1="598.0" y1="219.0" x2="948.0" y2="219.0"/>
<text class="tick" x="591.0" y="222.0" text-anchor="end">0.7</text>
<line class="grid" x1="598.0" y1="174.0" x2="948.0" y2="174.0"/>
<text class="tick" x="591.0" y="177.0" text-anchor="end">0.75</text>
<line class="grid" x1="598.0" y1="129.0" x2="948.0" y2="129.0"/>
<text class="tick" x="591.0" y="132.0" text-anchor="end">0.8</text>
<line class="grid" x1="598.0" y1="84.0" x2="948.0" y2="84.0"/>
<text class="tick" x="591.0" y="87.0" text-anchor="end">0.85</text>
<line class="axis" x1="598.0" y1="264.0" x2="948.0" y2="264.0"/>
<line class="axis" x1="598.0" y1="84.0" x2="598.0" y2="264.0"/>
<line class="axis" x1="598.0" y1="264.0" x2="598.0" y2="268.0"/>
<text class="tick" x="598.0" y="282.0" text-anchor="middle">20</text>
<line class="axis" x1="685.5" y1="264.0" x2="685.5" y2="268.0"/>
<text class="tick" x="685.5" y="282.0" text-anchor="middle">40</text>
<line class="axis" x1="773.0" y1="264.0" x2="773.0" y2="268.0"/>
<text class="tick" x="773.0" y="282.0" text-anchor="middle">60</text>
<line class="axis" x1="860.5" y1="264.0" x2="860.5" y2="268.0"/>
<text class="tick" x="860.5" y="282.0" text-anchor="middle">80</text>
<line class="axis" x1="948.0" y1="264.0" x2="948.0" y2="268.0"/>
<text class="tick" x="948.0" y="282.0" text-anchor="middle">100</text>
<text class="tick" x="552" y="174.0" transform="rotate(-90 552 174.0)" text-anchor="middle">Accuracy rel.</text>
<line x1="598.0" y1="132.5" x2="598.0" y2="188.4" stroke="#1b6ca8" stroke-width="1.0" opacity="0.68"/>
<line x1="592.5" y1="132.5" x2="603.5" y2="132.5" stroke="#1b6ca8" stroke-width="1.0" opacity="0.68"/>
<line x1="592.5" y1="188.4" x2="603.5" y2="188.4" stroke="#1b6ca8" stroke-width="1.0" opacity="0.68"/>
<line x1="685.5" y1="141.4" x2="685.5" y2="195.9" stroke="#1b6ca8" stroke-width="1.0" opacity="0.68"/>
<line x1="680.0" y1="141.4" x2="691.0" y2="141.4" stroke="#1b6ca8" stroke-width="1.0" opacity="0.68"/>
<line x1="680.0" y1="195.9" x2="691.0" y2="195.9" stroke="#1b6ca8" stroke-width="1.0" opacity="0.68"/>
<line x1="773.0" y1="147.8" x2="773.0" y2="201.7" stroke="#1b6ca8" stroke-width="1.0" opacity="0.68"/>
<line x1="767.5" y1="147.8" x2="778.5" y2="147.8" stroke="#1b6ca8" stroke-width="1.0" opacity="0.68"/>
<line x1="767.5" y1="201.7" x2="778.5" y2="201.7" stroke="#1b6ca8" stroke-width="1.0" opacity="0.68"/>
<line x1="860.5" y1="150.3" x2="860.5" y2="200.0" stroke="#1b6ca8" stroke-width="1.0" opacity="0.68"/>
<line x1="855.0" y1="150.3" x2="866.0" y2="150.3" stroke="#1b6ca8" stroke-width="1.0" opacity="0.68"/>
<line x1="855.0" y1="200.0" x2="866.0" y2="200.0" stroke="#1b6ca8" stroke-width="1.0" opacity="0.68"/>
<line x1="948.0" y1="145.3" x2="948.0" y2="205.6" stroke="#1b6ca8" stroke-width="1.0" opacity="0.68"/>
<line x1="942.5" y1="145.3" x2="953.5" y2="145.3" stroke="#1b6ca8" stroke-width="1.0" opacity="0.68"/>
<line x1="942.5" y1="205.6" x2="953.5" y2="205.6" stroke="#1b6ca8" stroke-width="1.0" opacity="0.68"/>
<polygon points="597.9,161.7 685.4,169.9 685.6,167.5 598.1,159.3" fill="#1b6ca8" opacity="0.92"/>
<polygon points="685.4,169.9 772.9,176.0 773.1,173.6 685.6,167.5" fill="#1b6ca8" opacity="0.92"/>
<polygon points="773.0,176.0 860.5,176.4 860.5,174.0 773.0,173.6" fill="#1b6ca8" opacity="0.92"/>
<polygon points="860.5,176.4 948.0,176.6 948.0,174.2 860.5,174.0" fill="#1b6ca8" opacity="0.92"/>
<circle cx="598.0" cy="160.5" r="3.5" fill="#1b6ca8" stroke="white" stroke-width="0.9"/>
<circle cx="685.5" cy="168.7" r="3.5" fill="#1b6ca8" stroke="white" stroke-width="0.9"/>
<circle cx="773.0" cy="174.8" r="3.5" fill="#1b6ca8" stroke="white" stroke-width="0.9"/>
<circle cx="860.5" cy="175.2" r="3.5" fill="#1b6ca8" stroke="white" stroke-width="0.9"/>
<circle cx="948.0" cy="175.4" r="3.5" fill="#1b6ca8" stroke="white" stroke-width="0.9"/>
<text class="label" x="280.0" y="369" text-anchor="middle">Energy</text>
<line class="grid" x1="128.0" y1="560.0" x2="478.0" y2="560.0"/>
<text class="tick" x="121.0" y="563.0" text-anchor="end">0</text>
<line class="grid" x1="128.0" y1="515.0" x2="478.0" y2="515.0"/>
<text class="tick" x="121.0" y="518.0" text-anchor="end">2.5e+03</text>
<line class="grid" x1="128.0" y1="470.0" x2="478.0" y2="470.0"/>
<text class="tick" x="121.0" y="473.0" text-anchor="end">5e+03</text>
<line class="grid" x1="128.0" y1="425.0" x2="478.0" y2="425.0"/>
<text class="tick" x="121.0" y="428.0" text-anchor="end">7.5e+03</text>
<line class="grid" x1="128.0" y1="380.0" x2="478.0" y2="380.0"/>
<text class="tick" x="121.0" y="383.0" text-anchor="end">1e+04</text>
<line class="axis" x1="128.0" y1="560.0" x2="478.0" y2="560.0"/>
<line class="axis" x1="128.0" y1="380.0" x2="128.0" y2="560.0"/>
<line class="axis" x1="128.0" y1="560.0" x2="128.0" y2="564.0"/>
<text class="tick" x="128.0" y="578.0" text-anchor="middle">20</text>
<line class="axis" x1="215.5" y1="560.0" x2="215.5" y2="564.0"/>
<text class="tick" x="215.5" y="578.0" text-anchor="middle">40</text>
<line class="axis" x1="303.0" y1="560.0" x2="303.0" y2="564.0"/>
<text class="tick" x="303.0" y="578.0" text-anchor="middle">60</text>
<line class="axis" x1="390.5" y1="560.0" x2="390.5" y2="564.0"/>
<text class="tick" x="390.5" y="578.0" text-anchor="middle">80</text>
<line class="axis" x1="478.0" y1="560.0" x2="478.0" y2="564.0"/>
<text class="tick" x="478.0" y="578.0" text-anchor="middle">100</text>
<text class="tick" x="82" y="470.0" transform="rotate(-90 82 470.0)" text-anchor="middle">Energy</text>
<line x1="128.0" y1="427.8" x2="128.0" y2="441.6" stroke="#1b6ca8" stroke-width="1.0" opacity="0.68"/>
<line x1="122.5" y1="427.8" x2="133.5" y2="427.8" stroke="#1b6ca8" stroke-width="1.0" opacity="0.68"/>
<line x1="122.5" y1="441.6" x2="133.5" y2="441.6" stroke="#1b6ca8" stroke-width="1.0" opacity="0.68"/>
<line x1="215.5" y1="441.5" x2="215.5" y2="453.3" stroke="#1b6ca8" stroke-width="1.0" opacity="0.68"/>
<line x1="210.0" y1="441.5" x2="221.0" y2="441.5" stroke="#1b6ca8" stroke-width="1.0" opacity="0.68"/>
<line x1="210.0" y1="453.3" x2="221.0" y2="453.3" stroke="#1b6ca8" stroke-width="1.0" opacity="0.68"/>
<line x1="303.0" y1="443.7" x2="303.0" y2="457.6" stroke="#1b6ca8" stroke-width="1.0" opacity="0.68"/>
<line x1="297.5" y1="443.7" x2="308.5" y2="443.7" stroke="#1b6ca8" stroke-width="1.0" opacity="0.68"/>
<line x1="297.5" y1="457.6" x2="308.5" y2="457.6" stroke="#1b6ca8" stroke-width="1.0" opacity="0.68"/>
<line x1="390.5" y1="442.9" x2="390.5" y2="458.3" stroke="#1b6ca8" stroke-width="1.0" opacity="0.68"/>
<line x1="385.0" y1="442.9" x2="396.0" y2="442.9" stroke="#1b6ca8" stroke-width="1.0" opacity="0.68"/>
<line x1="385.0" y1="458.3" x2="396.0" y2="458.3" stroke="#1b6ca8" stroke-width="1.0" opacity="0.68"/>
<line x1="478.0" y1="448.8" x2="478.0" y2="458.7" stroke="#1b6ca8" stroke-width="1.0" opacity="0.68"/>
<line x1="472.5" y1="448.8" x2="483.5" y2="448.8" stroke="#1b6ca8" stroke-width="1.0" opacity="0.68"/>
<line x1="472.5" y1="458.7" x2="483.5" y2="458.7" stroke="#1b6ca8" stroke-width="1.0" opacity="0.68"/>
<polygon points="127.8,435.9 215.3,448.6 215.7,446.2 128.2,433.5" fill="#1b6ca8" opacity="0.92"/>
<polygon points="215.5,448.6 303.0,451.9 303.0,449.5 215.5,446.2" fill="#1b6ca8" opacity="0.92"/>
<polygon points="303.0,451.9 390.5,451.8 390.5,449.4 303.0,449.5" fill="#1b6ca8" opacity="0.92"/>
<polygon points="390.5,451.8 478.0,454.9 478.0,452.5 390.5,449.4" fill="#1b6ca8" opacity="0.92"/>
<circle cx="128.0" cy="434.7" r="3.5" fill="#1b6ca8" stroke="white" stroke-width="0.9"/>
<circle cx="215.5" cy="447.4" r="3.5" fill="#1b6ca8" stroke="white" stroke-width="0.9"/>
<circle cx="303.0" cy="450.7" r="3.5" fill="#1b6ca8" stroke="white" stroke-width="0.9"/>
<circle cx="390.5" cy="450.6" r="3.5" fill="#1b6ca8" stroke="white" stroke-width="0.9"/>
<circle cx="478.0" cy="453.7" r="3.5" fill="#1b6ca8" stroke="white" stroke-width="0.9"/>
<text class="label" x="750.0" y="369" text-anchor="middle">Failed</text>
<line class="grid" x1="598.0" y1="560.0" x2="948.0" y2="560.0"/>
<text class="tick" x="591.0" y="563.0" text-anchor="end">0</text>
<line class="grid" x1="598.0" y1="515.0" x2="948.0" y2="515.0"/>
<text class="tick" x="591.0" y="518.0" text-anchor="end">1.25</text>
<line class="grid" x1="598.0" y1="470.0" x2="948.0" y2="470.0"/>
<text class="tick" x="591.0" y="473.0" text-anchor="end">2.5</text>
<line class="grid" x1="598.0" y1="425.0" x2="948.0" y2="425.0"/>
<text class="tick" x="591.0" y="428.0" text-anchor="end">3.75</text>
<line class="grid" x1="598.0" y1="380.0" x2="948.0" y2="380.0"/>
<text class="tick" x="591.0" y="383.0" text-anchor="end">5</text>
<line class="axis" x1="598.0" y1="560.0" x2="948.0" y2="560.0"/>
<line class="axis" x1="598.0" y1="380.0" x2="598.0" y2="560.0"/>
<line class="axis" x1="598.0" y1="560.0" x2="598.0" y2="564.0"/>
<text class="tick" x="598.0" y="578.0" text-anchor="middle">20</text>
<line class="axis" x1="685.5" y1="560.0" x2="685.5" y2="564.0"/>
<text class="tick" x="685.5" y="578.0" text-anchor="middle">40</text>
<line class="axis" x1="773.0" y1="560.0" x2="773.0" y2="564.0"/>
<text class="tick" x="773.0" y="578.0" text-anchor="middle">60</text>
<line class="axis" x1="860.5" y1="560.0" x2="860.5" y2="564.0"/>
<text class="tick" x="860.5" y="578.0" text-anchor="middle">80</text>
<line class="axis" x1="948.0" y1="560.0" x2="948.0" y2="564.0"/>
<text class="tick" x="948.0" y="578.0" text-anchor="middle">100</text>
<text class="tick" x="552" y="470.0" transform="rotate(-90 552 470.0)" text-anchor="middle">Failed</text>
<line x1="598.0" y1="458.0" x2="598.0" y2="532.4" stroke="#1b6ca8" stroke-width="1.0" opacity="0.68"/>
<line x1="592.5" y1="458.0" x2="603.5" y2="458.0" stroke="#1b6ca8" stroke-width="1.0" opacity="0.68"/>
<line x1="592.5" y1="532.4" x2="603.5" y2="532.4" stroke="#1b6ca8" stroke-width="1.0" opacity="0.68"/>
<line x1="685.5" y1="513.2" x2="685.5" y2="560.0" stroke="#1b6ca8" stroke-width="1.0" opacity="0.68"/>
<line x1="680.0" y1="513.2" x2="691.0" y2="513.2" stroke="#1b6ca8" stroke-width="1.0" opacity="0.68"/>
<line x1="680.0" y1="560.0" x2="691.0" y2="560.0" stroke="#1b6ca8" stroke-width="1.0" opacity="0.68"/>
<line x1="773.0" y1="531.8" x2="773.0" y2="560.0" stroke="#1b6ca8" stroke-width="1.0" opacity="0.68"/>
<line x1="767.5" y1="531.8" x2="778.5" y2="531.8" stroke="#1b6ca8" stroke-width="1.0" opacity="0.68"/>
<line x1="767.5" y1="560.0" x2="778.5" y2="560.0" stroke="#1b6ca8" stroke-width="1.0" opacity="0.68"/>
<line x1="860.5" y1="527.0" x2="860.5" y2="560.0" stroke="#1b6ca8" stroke-width="1.0" opacity="0.68"/>
<line x1="855.0" y1="527.0" x2="866.0" y2="527.0" stroke="#1b6ca8" stroke-width="1.0" opacity="0.68"/>
<line x1="855.0" y1="560.0" x2="866.0" y2="560.0" stroke="#1b6ca8" stroke-width="1.0" opacity="0.68"/>
<line x1="948.0" y1="520.4" x2="948.0" y2="560.0" stroke="#1b6ca8" stroke-width="1.0" opacity="0.68"/>
<line x1="942.5" y1="520.4" x2="953.5" y2="520.4" stroke="#1b6ca8" stroke-width="1.0" opacity="0.68"/>
<line x1="942.5" y1="560.0" x2="953.5" y2="560.0" stroke="#1b6ca8" stroke-width="1.0" opacity="0.68"/>
<polygon points="597.5,496.3 685.0,539.5 686.0,537.3 598.5,494.1" fill="#1b6ca8" opacity="0.92"/>
<polygon points="685.4,539.6 772.9,550.4 773.1,548.0 685.6,537.2" fill="#1b6ca8" opacity="0.92"/>
<polygon points="773.0,550.4 860.5,546.8 860.5,544.4 773.0,548.0" fill="#1b6ca8" opacity="0.92"/>
<polygon points="860.5,546.8 948.0,546.8 948.0,544.4 860.5,544.4" fill="#1b6ca8" opacity="0.92"/>
<circle cx="598.0" cy="495.2" r="3.5" fill="#1b6ca8" stroke="white" stroke-width="0.9"/>
<circle cx="685.5" cy="538.4" r="3.5" fill="#1b6ca8" stroke="white" stroke-width="0.9"/>
<circle cx="773.0" cy="549.2" r="3.5" fill="#1b6ca8" stroke="white" stroke-width="0.9"/>
<circle cx="860.5" cy="545.6" r="3.5" fill="#1b6ca8" stroke="white" stroke-width="0.9"/>
<circle cx="948.0" cy="545.6" r="3.5" fill="#1b6ca8" stroke="white" stroke-width="0.9"/>
<text class="label" x="280.0" y="665" text-anchor="middle">Runtime (ms)</text>
<line class="grid" x1="128.0" y1="856.0" x2="478.0" y2="856.0"/>
<text class="tick" x="121.0" y="859.0" text-anchor="end">0</text>
<line class="grid" x1="128.0" y1="811.0" x2="478.0" y2="811.0"/>
<text class="tick" x="121.0" y="814.0" text-anchor="end">5e+04</text>
<line class="grid" x1="128.0" y1="766.0" x2="478.0" y2="766.0"/>
<text class="tick" x="121.0" y="769.0" text-anchor="end">1e+05</text>
<line class="grid" x1="128.0" y1="721.0" x2="478.0" y2="721.0"/>
<text class="tick" x="121.0" y="724.0" text-anchor="end">1.5e+05</text>
<line class="grid" x1="128.0" y1="676.0" x2="478.0" y2="676.0"/>
<text class="tick" x="121.0" y="679.0" text-anchor="end">2e+05</text>
<line class="axis" x1="128.0" y1="856.0" x2="478.0" y2="856.0"/>
<line class="axis" x1="128.0" y1="676.0" x2="128.0" y2="856.0"/>
<line class="axis" x1="128.0" y1="856.0" x2="128.0" y2="860.0"/>
<text class="tick" x="128.0" y="874.0" text-anchor="middle">20</text>
<line class="axis" x1="215.5" y1="856.0" x2="215.5" y2="860.0"/>
<text class="tick" x="215.5" y="874.0" text-anchor="middle">40</text>
<line class="axis" x1="303.0" y1="856.0" x2="303.0" y2="860.0"/>
<text class="tick" x="303.0" y="874.0" text-anchor="middle">60</text>
<line class="axis" x1="390.5" y1="856.0" x2="390.5" y2="860.0"/>
<text class="tick" x="390.5" y="874.0" text-anchor="middle">80</text>
<line class="axis" x1="478.0" y1="856.0" x2="478.0" y2="860.0"/>
<text class="tick" x="478.0" y="874.0" text-anchor="middle">100</text>
<text class="tick" x="82" y="766.0" transform="rotate(-90 82 766.0)" text-anchor="middle">Runtime (ms)</text>
<line x1="128.0" y1="833.3" x2="128.0" y2="834.5" stroke="#1b6ca8" stroke-width="1.0" opacity="0.68"/>
<line x1="122.5" y1="833.3" x2="133.5" y2="833.3" stroke="#1b6ca8" stroke-width="1.0" opacity="0.68"/>
<line x1="122.5" y1="834.5" x2="133.5" y2="834.5" stroke="#1b6ca8" stroke-width="1.0" opacity="0.68"/>
<line x1="215.5" y1="805.0" x2="215.5" y2="807.7" stroke="#1b6ca8" stroke-width="1.0" opacity="0.68"/>
<line x1="210.0" y1="805.0" x2="221.0" y2="805.0" stroke="#1b6ca8" stroke-width="1.0" opacity="0.68"/>
<line x1="210.0" y1="807.7" x2="221.0" y2="807.7" stroke="#1b6ca8" stroke-width="1.0" opacity="0.68"/>
<line x1="303.0" y1="771.2" x2="303.0" y2="776.0" stroke="#1b6ca8" stroke-width="1.0" opacity="0.68"/>
<line x1="297.5" y1="771.2" x2="308.5" y2="771.2" stroke="#1b6ca8" stroke-width="1.0" opacity="0.68"/>
<line x1="297.5" y1="776.0" x2="308.5" y2="776.0" stroke="#1b6ca8" stroke-width="1.0" opacity="0.68"/>
<line x1="390.5" y1="731.3" x2="390.5" y2="737.7" stroke="#1b6ca8" stroke-width="1.0" opacity="0.68"/>
<line x1="385.0" y1="731.3" x2="396.0" y2="731.3" stroke="#1b6ca8" stroke-width="1.0" opacity="0.68"/>
<line x1="385.0" y1="737.7" x2="396.0" y2="737.7" stroke="#1b6ca8" stroke-width="1.0" opacity="0.68"/>
<line x1="478.0" y1="678.5" x2="478.0" y2="691.4" stroke="#1b6ca8" stroke-width="1.0" opacity="0.68"/>
<line x1="472.5" y1="678.5" x2="483.5" y2="678.5" stroke="#1b6ca8" stroke-width="1.0" opacity="0.68"/>
<line x1="472.5" y1="691.4" x2="483.5" y2="691.4" stroke="#1b6ca8" stroke-width="1.0" opacity="0.68"/>
<polygon points="128.4,835.0 215.9,807.5 215.1,805.3 127.6,832.8" fill="#1b6ca8" opacity="0.92"/>
<polygon points="215.9,807.5 303.4,774.7 302.6,772.5 215.1,805.3" fill="#1b6ca8" opacity="0.92"/>
<polygon points="303.5,774.7 391.0,735.6 390.0,733.4 302.5,772.5" fill="#1b6ca8" opacity="0.92"/>
<polygon points="391.1,735.5 478.6,685.9 477.4,683.9 389.9,733.5" fill="#1b6ca8" opacity="0.92"/>
<circle cx="128.0" cy="833.9" r="3.5" fill="#1b6ca8" stroke="white" stroke-width="0.9"/>
<circle cx="215.5" cy="806.4" r="3.5" fill="#1b6ca8" stroke="white" stroke-width="0.9"/>
<circle cx="303.0" cy="773.6" r="3.5" fill="#1b6ca8" stroke="white" stroke-width="0.9"/>
<circle cx="390.5" cy="734.5" r="3.5" fill="#1b6ca8" stroke="white" stroke-width="0.9"/>
<circle cx="478.0" cy="684.9" r="3.5" fill="#1b6ca8" stroke="white" stroke-width="0.9"/>
<line x1="1010" y1="78" x2="1026" y2="78" stroke="#1b6ca8" stroke-width="2.4"/>
<circle cx="1018" cy="78" r="3.2" fill="#1b6ca8"/>
<text class="legend" x="1033" y="82">DAREED</text>
</svg>
